<svg width="75" height="675" viewBox="0 0 75 675" fill="none" xmlns="http://www.w3.org/2000/svg">
<path opacity="0.47" d="M0.00695473 75.3108C0.00726844 54.6303 16.7702 37.8655 37.4484 37.8655C58.1265 37.8656 74.8895 54.6303 74.8898 75.3109L0.00695473 75.3108ZM74.8654 0.41925C74.1845 20.5018 57.6943 36.5725 37.4484 36.5726C17.2024 36.5726 0.712226 20.5018 0.0313721 0.419247L74.8654 0.41925Z" fill="#41DF82"/>
<path opacity="0.47" d="M0.0156217 524.653C0.0159583 503.97 16.7764 487.204 37.4521 487.204C58.128 487.204 74.8893 503.97 74.8896 524.653L0.0156217 524.653ZM74.8662 449.752C74.1857 469.838 57.6961 485.912 37.4521 485.912C17.2083 485.912 0.720542 469.837 0.0400391 449.752L74.8662 449.752Z" fill="white"/>
<path opacity="0.47" d="M57.1455 150.195C63.8367 145.111 69.8132 139.137 74.8984 132.448L74.8984 135.491C70.5509 140.916 65.6157 145.849 60.1895 150.195L57.1455 150.195ZM35.4824 150.195C52.8195 142.13 66.8316 128.123 74.8984 110.792L74.8984 115.016C67.044 130.03 54.7282 142.342 39.71 150.195L35.4824 150.195ZM4.89704e-07 146.461C0.429715 146.468 0.860417 146.474 1.29199 146.474C39.8888 146.474 71.1766 115.194 71.1768 76.6101C71.1768 76.1792 71.1709 75.749 71.1631 75.32L73.0352 75.32C73.0427 75.749 73.0488 76.1793 73.0488 76.6101L73.043 77.5378C72.5501 116.42 41.1131 147.848 2.21875 148.341L1.29199 148.346C0.860446 148.346 0.429736 148.341 2.44084e-07 148.334L4.89704e-07 146.461ZM1.9656e-06 135.206C0.429531 135.215 0.860237 135.221 1.29199 135.221C33.6724 135.221 59.9215 108.98 59.9219 76.611C59.9219 76.1797 59.9155 75.7491 59.9063 75.32L61.7793 75.32C61.7883 75.7492 61.794 76.1797 61.794 76.611L61.7891 77.3923C61.3736 110.175 34.8674 136.673 2.07422 137.089L1.29199 137.093C0.860276 137.093 0.429562 137.088 1.71998e-06 137.079L1.9656e-06 135.206ZM3.4415e-06 123.951C0.429245 123.962 0.85998 123.968 1.292 123.968C27.4559 123.968 48.6648 102.764 48.665 76.6101C48.665 76.1788 48.658 75.7485 48.6465 75.32L50.5205 75.32C50.5315 75.7486 50.5371 76.1788 50.5371 76.6101L50.5332 77.2468C50.1949 103.931 28.6202 125.499 1.92774 125.837L1.292 125.841C0.860028 125.841 0.429305 125.834 3.19601e-06 125.823L3.4415e-06 123.951ZM4.91804e-06 112.691C0.428491 112.706 0.858862 112.716 1.29102 112.716C21.2378 112.716 37.407 96.5504 37.4072 76.611C37.4072 76.179 37.3969 75.7484 37.3818 75.32L39.2549 75.32C39.2692 75.7485 39.2793 76.1791 39.2793 76.611L39.2666 77.5915C38.7545 97.7866 22.4727 114.064 2.27149 114.576L1.29102 114.589C0.858954 114.589 0.428588 114.578 4.67242e-06 114.564L4.91804e-06 112.691ZM6.39484e-06 101.429C0.427893 101.451 0.858664 101.464 1.292 101.464C15.0228 101.463 26.1531 90.3355 26.1533 76.611C26.1533 76.1781 26.142 75.7475 26.1201 75.32L27.9932 75.32C28.0135 75.7477 28.0254 76.1783 28.0254 76.611L28.0166 77.3015C27.6502 91.7416 15.8254 103.335 1.292 103.336C0.858855 103.336 0.428106 103.324 6.14909e-06 103.303L6.39484e-06 101.429ZM7.50385e-06 92.9724C0.425977 93.0055 0.856548 93.0231 1.29102 93.0231C10.3595 93.0231 17.7098 85.6738 17.71 76.61C17.71 76.176 17.6923 75.7456 17.6592 75.32L19.5371 75.32C19.5668 75.7461 19.583 76.1764 19.583 76.61L19.5762 77.0817C19.3258 86.9621 11.2351 94.8952 1.29102 94.8952C0.856973 94.8952 0.426498 94.8781 7.25784e-06 94.8483L7.50385e-06 92.9724ZM8.72554e-06 83.6559C0.418917 83.7322 0.850103 83.7751 1.29102 83.7751C5.24946 83.7749 8.45781 80.5663 8.45802 76.61C8.458 76.1696 8.41599 75.7385 8.33985 75.32L10.2373 75.32C10.2975 75.7413 10.3301 76.1721 10.3301 76.61L10.3184 77.0749C10.0763 81.8496 6.12709 85.647 1.29102 85.6472C0.852631 85.6471 0.421722 85.6137 8.47672e-06 85.5534L8.72554e-06 83.6559Z" fill="white"/>
<path opacity="0.47" d="M74.8892 392.605C69.8057 385.914 63.8317 379.937 57.1431 374.852L60.186 374.852C65.6101 379.199 70.5432 384.134 74.8892 389.56L74.8892 392.605ZM74.8892 414.27C66.8244 396.932 52.8164 382.919 35.4839 374.852L39.7095 374.852C54.724 382.707 67.0365 395.023 74.8892 410.042L74.8892 414.27ZM71.1558 449.753C71.1635 449.324 71.1685 448.893 71.1685 448.461C71.1682 409.863 39.8877 378.573 1.30322 378.573C0.871951 378.573 0.441622 378.579 0.0122093 378.586L0.0122094 376.714C0.441653 376.707 0.871973 376.701 1.30322 376.701L2.23096 376.707C41.1138 377.2 72.5417 408.638 73.0347 447.534L73.0405 448.461C73.0405 448.893 73.0354 449.324 73.0278 449.753L71.1558 449.753ZM59.8999 449.753C59.9092 449.324 59.9146 448.893 59.9146 448.461C59.9143 416.079 33.6726 389.83 1.30322 389.83C0.871767 389.83 0.441439 389.836 0.0122089 389.845L0.012209 387.972C0.441469 387.963 0.871805 387.958 1.30322 387.958C34.4465 387.958 61.3634 414.625 61.7817 447.68L61.7866 448.461C61.7866 448.893 61.781 449.324 61.772 449.753L59.8999 449.753ZM48.644 449.753C48.6555 449.324 48.6616 448.893 48.6616 448.461C48.6615 422.296 27.4571 401.085 1.30225 401.085C0.870851 401.085 0.440836 401.093 0.0122086 401.104L0.0122086 399.23C0.440881 399.219 0.87092 399.213 1.30225 399.213L1.93897 399.217C28.6233 399.555 50.1916 421.131 50.5298 447.825L50.5337 448.461C50.5337 448.893 50.5281 449.324 50.5171 449.753L48.644 449.753ZM37.3843 449.753C37.3993 449.325 37.4097 448.895 37.4097 448.462C37.4094 428.515 21.243 412.344 1.30322 412.344C0.871042 412.344 0.440721 412.355 0.0122082 412.37L0.0122083 410.498C0.440828 410.483 0.871118 410.472 1.30322 410.472L2.28369 410.484C22.8052 411.004 39.2815 427.809 39.2817 448.462C39.2817 448.894 39.2716 449.325 39.2573 449.753L37.3843 449.753ZM26.1235 449.753C26.1454 449.326 26.1567 448.895 26.1567 448.461C26.1566 434.73 15.0289 423.599 1.3042 423.599C0.870858 423.599 0.440102 423.61 0.0122079 423.632L0.0122079 421.759C0.440331 421.739 0.871026 421.727 1.3042 421.727C16.0635 421.727 28.0287 433.697 28.0288 448.461C28.0288 448.895 28.0179 449.325 27.9976 449.753L26.1235 449.753ZM17.6655 449.753C17.6987 449.327 17.7163 448.896 17.7163 448.461C17.716 439.393 10.367 432.042 1.30322 432.042C0.868722 432.042 0.43821 432.059 0.0122076 432.092L0.0122077 430.216C0.438721 430.187 0.869141 430.169 1.30322 430.169C11.4016 430.17 19.5881 438.359 19.5884 448.461C19.5884 448.896 19.5723 449.327 19.5425 449.753L17.6655 449.753ZM8.34912 449.753C8.42542 449.334 8.46729 448.903 8.46729 448.461C8.46679 444.503 5.2585 441.294 1.30225 441.294C0.861641 441.294 0.430863 441.337 0.0122073 441.414L0.0122074 439.515C0.433602 439.455 0.864197 439.422 1.30225 439.422L1.76709 439.434C6.38789 439.668 10.0931 443.375 10.3276 447.997L10.3394 448.461C10.3394 448.9 10.307 449.331 10.2466 449.753L8.34912 449.753Z" fill="#41DF82"/>
<path opacity="0.47" d="M6.54706e-06 599.53L74.8896 674.419L0 674.419L6.54706e-06 599.53Z" fill="white"/>
<path opacity="0.47" d="M74.8906 225.085L0.000976563 299.974L0.000976562 299.975L0.000986383 225.085L74.8906 225.085Z" fill="white"/>
<path opacity="0.47" d="M-3.27353e-06 374.864L74.8896 299.976L74.8896 299.975L74.8896 374.864L-3.27353e-06 374.864Z" fill="#41DF82"/>
<g opacity="0.47">
<path d="M74.8899 225.086L0.00120434 225.086L0.0012207 150.197L74.8899 150.197L74.8899 225.086ZM32.3889 165.693C31.0221 165.693 29.9133 166.801 29.9133 168.168C29.9137 169.534 31.0224 170.642 32.3889 170.642C32.6486 170.642 32.8989 170.601 33.134 170.527L37.9495 185.776C36.6867 186.175 35.5989 186.967 34.8303 188.01L21.8899 181.231C22.2751 180.251 22.4894 179.183 22.4895 178.066C22.4894 173.283 18.6118 169.405 13.8284 169.405C9.04468 169.405 5.16634 173.283 5.16625 178.066C5.1665 182.85 9.04478 186.728 13.8284 186.728C17.161 186.728 20.0519 184.844 21.5002 182.085L34.3323 188.806C33.882 189.664 33.6262 190.641 33.6262 191.677C33.6264 193.695 34.5931 195.488 36.0881 196.617L32.6301 203.039C32.1633 202.893 31.6665 202.814 31.1516 202.814C28.4182 202.814 26.2016 205.03 26.2014 207.763C26.2017 210.497 28.4182 212.714 31.1516 212.714C33.8848 212.713 36.1006 210.497 36.1008 207.763C36.1007 205.879 35.047 204.241 33.4973 203.405L36.8791 197.125C37.7523 197.596 38.7519 197.864 39.8137 197.864C42.0612 197.864 44.0282 196.665 45.1116 194.872L57.1711 199.838C57.149 200.002 57.137 200.17 57.137 200.34C57.1373 202.389 58.799 204.051 60.8489 204.052C62.8987 204.051 64.5604 202.389 64.5608 200.34C64.5608 198.289 62.899 196.627 60.8489 196.627C59.2994 196.627 57.9723 197.577 57.4162 198.926L45.5334 194.034C45.833 193.308 46.0002 192.512 46.0002 191.678C46.0002 190.78 45.8068 189.928 45.4631 189.158L54.6213 183.27C55.2827 183.88 56.1657 184.253 57.136 184.253C59.1859 184.253 60.8486 182.591 60.8489 180.541C60.8488 178.491 59.186 176.829 57.136 176.829C55.086 176.829 53.4242 178.491 53.4241 180.541C53.4242 181.28 53.641 181.97 54.0139 182.549L45.0168 188.333C43.916 186.624 41.9978 185.49 39.8137 185.49C39.4908 185.49 39.1731 185.515 38.8635 185.562L33.9719 170.068C34.5161 169.614 34.8633 168.932 34.8635 168.168C34.8635 166.801 33.7554 165.693 32.3889 165.693Z" fill="white"/>
</g>
<g opacity="0.47">
<path d="M0.000603805 524.641L74.8893 524.641L74.8893 599.53L0.000610352 599.53L0.000603805 524.641ZM42.5016 584.035C43.8682 584.035 44.977 582.927 44.9772 581.56C44.977 580.193 43.8683 579.085 42.5016 579.085C42.2415 579.086 41.991 579.127 41.7555 579.202L36.941 563.952C38.2039 563.553 39.2916 562.76 40.0602 561.717L53.0006 568.496C52.6152 569.476 52.401 570.544 52.401 571.662C52.4013 576.445 56.2788 580.323 61.0621 580.323C65.8457 580.323 69.724 576.445 69.7242 571.662C69.7242 566.878 65.8459 563 61.0621 563C57.7294 563 54.8386 564.884 53.3903 567.643L40.5582 560.921C41.0086 560.063 41.2642 559.087 41.2643 558.05C41.2642 556.032 40.2975 554.24 38.8024 553.111L42.2604 546.689C42.7272 546.835 43.224 546.914 43.7389 546.914C46.4722 546.914 48.6887 544.698 48.6891 541.964C48.6891 539.231 46.4724 537.014 43.7389 537.014C41.0056 537.015 38.7897 539.231 38.7897 541.964C38.79 543.849 39.8434 545.487 41.3932 546.323L38.0113 552.603C37.1381 552.132 36.1387 551.864 35.0768 551.864C32.8292 551.864 30.8623 553.063 29.7789 554.856L17.7194 549.89C17.7415 549.726 17.7535 549.558 17.7535 549.388C17.7534 547.338 16.0916 545.676 14.0416 545.676C11.9917 545.676 10.3289 547.338 10.3287 549.388C10.3289 551.438 11.9917 553.101 14.0416 553.101C15.5909 553.101 16.9181 552.151 17.4742 550.802L29.3571 555.694C29.0575 556.42 28.8903 557.216 28.8903 558.05C28.8903 558.947 29.0838 559.799 29.4274 560.569L20.2682 566.458C19.6069 565.848 18.7247 565.474 17.7545 565.474C15.7045 565.474 14.0416 567.137 14.0416 569.187C14.042 571.237 15.7047 572.899 17.7545 572.899C19.8043 572.899 21.4661 571.237 21.4664 569.187C21.4664 568.447 21.2494 567.758 20.8766 567.179L29.8737 561.396C30.9746 563.105 32.8931 564.238 35.0768 564.238C35.3996 564.238 35.7175 564.213 36.027 564.166L40.9186 579.66C40.3745 580.114 40.0271 580.796 40.027 581.56C40.0272 582.926 41.1352 584.034 42.5016 584.035Z" fill="#41DF82"/>
</g>
</svg>
