<svg width="426" height="425" viewBox="0 0 426 425" fill="none" xmlns="http://www.w3.org/2000/svg">
<path d="M115.037 346.897C88.4018 345.989 63.4559 333.091 47.8445 311.491C40.1173 300.801 34.4922 287.778 34.7834 272.654C35.6783 226.123 52.0375 225.438 53.8272 186.959C55.617 148.48 18.9967 127.612 25.2608 85.5551C31.5249 43.4978 67.5909 42.955 89.0055 43.6873C129.998 45.0896 151.816 97.136 209.981 106.98C268.145 116.823 315.378 84.2644 347.092 96.982C374.984 108.167 405.57 144.749 393.748 178.392C381.925 212.034 371.775 229.51 375.354 243.828C378.933 258.145 408.576 278.896 381.369 321.217C347.092 374.536 187.444 349.365 115.037 346.897Z" fill="#E7E2F4"/>
<path d="M358.447 316.33H119.96C117.366 316.33 115.264 314.228 115.264 311.634V159.42C115.264 156.826 117.366 154.724 119.96 154.724H358.447C361.041 154.724 363.143 156.826 363.143 159.42V311.634C363.143 314.226 361.039 316.33 358.447 316.33Z" fill="url(#paint0_linear_1751_2183)"/>
<path d="M354.982 163.504H123.423V307.549H354.982V163.504Z" fill="white"/>
<path d="M380.612 330.816H97.7925C91.2881 330.816 86.0137 325.543 86.0137 319.037V314.122H392.39V319.037C392.39 325.541 387.117 330.816 380.612 330.816Z" fill="#9251ED"/>
<path d="M354.983 163.504H123.424V174.424H354.983V163.504Z" fill="#CBA4F6"/>
<path d="M130.572 170.508C131.594 170.508 132.424 169.695 132.424 168.693C132.424 167.69 131.594 166.877 130.572 166.877C129.549 166.877 128.72 167.69 128.72 168.693C128.72 169.695 129.549 170.508 130.572 170.508Z" fill="#5B1AB3"/>
<path d="M136.634 170.508C137.657 170.508 138.486 169.695 138.486 168.693C138.486 167.69 137.657 166.877 136.634 166.877C135.611 166.877 134.782 167.69 134.782 168.693C134.782 169.695 135.611 170.508 136.634 170.508Z" fill="#5B1AB3"/>
<path d="M142.698 170.508C143.72 170.508 144.55 169.695 144.55 168.693C144.55 167.69 143.72 166.877 142.698 166.877C141.675 166.877 140.846 167.69 140.846 168.693C140.846 169.695 141.675 170.508 142.698 170.508Z" fill="#5B1AB3"/>
<path d="M86.0137 315.36C86.0137 315.832 86.0434 316.296 86.0844 316.758H392.319C392.36 316.297 392.39 315.832 392.39 315.36V314.122H86.0137V315.36Z" fill="#CBA4F6"/>
<path d="M257.852 324.665H220.552C219.693 324.665 218.994 323.968 218.994 323.107V321.829C218.994 320.97 219.691 320.271 220.552 320.271H257.852C258.712 320.271 259.41 320.968 259.41 321.829V323.107C259.41 323.968 258.713 324.665 257.852 324.665Z" fill="#5B1AB3"/>
<path d="M245.551 162.123H232.852C231.992 162.123 231.294 161.426 231.294 160.565V159.287C231.294 158.428 231.991 157.729 232.852 157.729H245.551C246.411 157.729 247.109 158.426 247.109 159.287V160.565C247.109 161.425 246.412 162.123 245.551 162.123Z" fill="#5B1AB3"/>
<path opacity="0.75" d="M336.339 276.299H222.302C219.083 276.299 216.474 273.689 216.474 270.47V234.665C216.474 231.446 219.083 228.837 222.302 228.837H336.339C339.558 228.837 342.168 231.446 342.168 234.665V270.47C342.169 273.689 339.558 276.299 336.339 276.299Z" fill="#CBA4F6"/>
<path d="M296.38 193.387H216.812C216.098 193.387 215.519 193.967 215.519 194.68C215.519 195.394 216.098 195.974 216.812 195.974H296.38C297.094 195.974 297.674 195.394 297.674 194.68C297.674 193.967 297.094 193.387 296.38 193.387Z" fill="#E0A6F8"/>
<path d="M339.91 193.387H306.843C306.129 193.387 305.55 193.967 305.55 194.68C305.55 195.394 306.129 195.974 306.843 195.974H339.91C340.623 195.974 341.203 195.394 341.203 194.68C341.203 193.967 340.625 193.387 339.91 193.387Z" fill="#E0A6F8"/>
<path d="M260.34 202.295H339.909C340.622 202.295 341.202 202.874 341.202 203.588C341.202 204.302 340.622 204.882 339.909 204.882H260.34C259.626 204.882 259.047 204.302 259.047 203.588C259.047 202.874 259.626 202.295 260.34 202.295Z" fill="#E0A6F8"/>
<path d="M216.812 202.295H249.878C250.592 202.295 251.172 202.874 251.172 203.588C251.172 204.302 250.592 204.882 249.878 204.882H216.812C216.098 204.882 215.519 204.302 215.519 203.588C215.519 202.874 216.098 202.295 216.812 202.295Z" fill="#E0A6F8"/>
<path d="M306.318 184.481H216.812C216.098 184.481 215.519 185.06 215.519 185.774C215.519 186.488 216.098 187.068 216.812 187.068H306.318C307.032 187.068 307.612 186.488 307.612 185.774C307.612 185.059 307.034 184.481 306.318 184.481Z" fill="#E0A6F8"/>
<path d="M339.908 184.481H316.782C316.068 184.481 315.488 185.06 315.488 185.774C315.488 186.488 316.068 187.068 316.782 187.068H339.908C340.622 187.068 341.202 186.488 341.202 185.774C341.202 185.059 340.624 184.481 339.908 184.481Z" fill="#E0A6F8"/>
<path d="M310.642 210.234V202.299C310.642 201.653 310.117 201.128 309.471 201.128C308.825 201.128 308.301 201.651 308.301 202.299V211.299C308.301 211.945 308.825 212.469 309.471 212.469C312.101 212.469 314.241 214.609 314.241 217.239C314.241 219.868 312.101 222.009 309.471 222.009C307.293 222.009 305.393 220.537 304.851 218.432C304.69 217.806 304.054 217.43 303.426 217.591C302.8 217.752 302.424 218.39 302.585 219.016C303.394 222.157 306.225 224.35 309.471 224.35C313.391 224.35 316.581 221.16 316.581 217.24C316.582 213.719 314.006 210.795 310.642 210.234Z" fill="#FF7C06"/>
<path d="M314.494 201.397H303.206C302.798 201.397 302.437 201.124 302.327 200.731L277.33 111.629C277.254 111.358 277.307 111.068 277.474 110.84C277.641 110.614 277.904 110.477 278.185 110.47L338.259 108.857C338.548 108.851 338.82 108.977 338.998 109.202C339.176 109.426 339.24 109.723 339.166 110L315.379 200.715C315.272 201.117 314.91 201.397 314.494 201.397ZM303.897 199.572H313.79L337.091 110.716L279.405 112.264L303.897 199.572Z" fill="#5B1AB3"/>
<path d="M334.653 100.225C334.545 100.225 334.434 100.212 334.324 100.184L97.4504 40.3309L55.4893 93.7825C55.0327 94.3649 54.1901 94.4667 53.6077 94.0087C53.0252 93.552 52.9234 92.7095 53.3815 92.127L95.8812 37.9912C96.2078 37.5742 96.7506 37.389 97.2638 37.519L334.983 97.5839C335.7 97.7648 336.135 98.4943 335.954 99.211C335.799 99.8203 335.253 100.225 334.653 100.225Z" fill="#5B1AB3"/>
<path d="M113.055 100.346H82.8628C82.6041 100.346 82.3412 100.312 82.1051 100.213C81.2413 99.853 80.8427 99.0189 81.0363 98.2456L95.8971 39.118C96.0907 38.3476 96.8301 37.8019 97.6811 37.8019H97.6882C98.5378 37.8019 99.2772 38.3433 99.4765 39.111L114.835 98.1975C114.896 98.4322 114.922 98.6782 114.874 98.9171C114.701 99.7893 113.913 100.346 113.055 100.346ZM85.1474 96.9238H110.717L97.7179 46.9145L85.1474 96.9238Z" fill="#9351EF"/>
<path d="M110.113 336.927H85.9912V106.818H110.112V336.927H110.113ZM89.0731 333.845H107.031V109.9H89.0731V333.845Z" fill="#9351EF"/>
<path d="M107.594 337.562L86.4405 314.847L103.665 296.23L86.1988 277.364L103.567 258.599L86.0503 240.514L104.792 221.163L86.0108 201.771L103.184 184.04L86.6568 166.975L104.184 148.877L85.7549 129.847L106.303 108.63L108.517 110.775L90.044 129.847L108.474 148.877L90.9474 166.975L107.473 184.04L90.3013 201.771L109.081 221.163L90.3409 240.514L107.81 258.551L90.3989 277.364L107.864 296.23L90.6448 314.841L109.848 335.461L107.594 337.562Z" fill="#9351EF"/>
<path d="M53.0742 116.245V91.1658L339.438 97.5684V110.946L53.0742 116.245ZM55.7942 93.9465V113.474L336.72 108.276V100.226L55.7942 93.9465Z" fill="#9351EF"/>
<path d="M88.6866 115.624L57.5049 93.6468L59.0416 91.4655L88.6824 112.357L116.983 92.3306L143.179 110.868L167.316 93.7867L190.867 110.453L212.95 94.823L231.329 107.83L249.136 96.9393L266.252 107.336L282.598 97.4835L299.907 108.018L317.231 97.4751L335.387 108.54L333.999 110.817L317.229 100.598L299.907 111.141L282.591 100.602L266.246 110.453L249.14 100.064L231.222 111.022L212.95 98.0914L190.867 113.72L167.316 97.0538L143.179 114.135L116.983 95.5977L88.6866 115.624Z" fill="#9351EF"/>
<path d="M80.6074 115.616L114.898 114.94V92.7322L80.6074 91.915V115.616Z" fill="#5B1AB3"/>
<path d="M301.191 201.097C301.197 201.885 301.327 202.703 301.62 203.546C302.694 206.635 305.54 208.851 308.808 208.983C313.346 209.165 317.083 205.54 317.083 201.043C317.083 201.036 317.083 201.029 317.083 201.022C317.08 199.87 316.106 198.953 314.952 198.953H303.325C302.143 198.954 301.183 199.915 301.191 201.097Z" fill="#9351EF"/>
<path d="M128.249 330.101H69.9527C68.4853 330.101 67.2949 328.91 67.2949 327.443V319.126C67.2949 317.659 68.4853 316.469 69.9527 316.469H128.249C129.716 316.469 130.907 317.659 130.907 319.126V327.443C130.907 328.912 129.716 330.101 128.249 330.101Z" fill="#9251ED"/>
<path d="M142.415 341.013H55.7882C54.3363 341.013 53.1602 339.837 53.1602 338.385V326.893C53.1602 325.441 54.3363 324.265 55.7882 324.265H142.415C143.867 324.265 145.043 325.441 145.043 326.893V338.385C145.043 339.837 143.867 341.013 142.415 341.013Z" fill="#7B30D3"/>
<path d="M363.403 253.281C363.241 253.281 363.077 253.237 362.928 253.147L314.681 223.68C311.727 221.876 308.207 221.086 304.766 221.45L253.399 226.909C252.895 226.964 252.447 226.598 252.395 226.097C252.341 225.595 252.705 225.146 253.206 225.092L304.574 219.634C308.411 219.227 312.34 220.109 315.633 222.12L363.881 251.587C364.311 251.85 364.447 252.412 364.185 252.843C364.011 253.126 363.71 253.281 363.403 253.281Z" fill="#9351EF"/>
<path d="M354.384 292.809L247.412 268.128C244.275 267.404 242.318 264.274 243.042 261.137L250.73 227.813C251.454 224.676 254.583 222.72 257.72 223.444L364.693 248.125C367.83 248.849 369.786 251.979 369.063 255.116L361.375 288.439C360.651 291.576 357.521 293.533 354.384 292.809Z" fill="url(#paint1_linear_1751_2183)"/>
<path d="M361.371 262.022L307.313 249.549C306.838 249.44 306.353 249.786 306.23 250.322C306.106 250.859 306.39 251.382 306.865 251.493L360.923 263.966C361.398 264.074 361.883 263.728 362.006 263.192C362.131 262.655 361.846 262.131 361.371 262.022Z" fill="#5D1AB5"/>
<path d="M356.643 282.52L302.585 270.047C302.11 269.938 301.625 270.285 301.502 270.821C301.377 271.358 301.662 271.881 302.137 271.991L356.195 284.464C356.67 284.573 357.155 284.227 357.278 283.691C357.401 283.154 357.116 282.629 356.643 282.52Z" fill="#5D1AB5"/>
<path d="M347.269 251.57L308.89 242.715C308.415 242.606 307.931 242.953 307.808 243.488C307.683 244.026 307.967 244.549 308.442 244.659L346.821 253.514C347.296 253.623 347.781 253.277 347.904 252.741C348.028 252.204 347.744 251.681 347.269 251.57Z" fill="#5D1AB5"/>
<path d="M352.887 253.89C352.762 254.428 353.046 254.951 353.521 255.061L362.501 257.133C362.976 257.242 363.461 256.896 363.584 256.36C363.708 255.823 363.424 255.3 362.949 255.189L353.97 253.117C353.495 253.007 353.01 253.353 352.887 253.89Z" fill="#5D1AB5"/>
<path d="M318.851 260.431C318.726 260.969 319.01 261.492 319.485 261.602L359.348 270.799C359.823 270.908 360.308 270.562 360.431 270.026C360.556 269.489 360.272 268.966 359.797 268.856L319.933 259.658C319.46 259.548 318.975 259.894 318.851 260.431Z" fill="#5D1AB5"/>
<path d="M313.235 258.112L305.738 256.381C305.263 256.272 304.778 256.619 304.655 257.154C304.531 257.692 304.815 258.215 305.29 258.325L312.787 260.055C313.262 260.164 313.747 259.818 313.87 259.282C313.993 258.745 313.708 258.22 313.235 258.112Z" fill="#5D1AB5"/>
<path d="M346.91 274.102C346.786 274.639 347.07 275.162 347.545 275.272L357.77 277.632C358.245 277.74 358.73 277.394 358.853 276.858C358.977 276.321 358.693 275.798 358.218 275.688L347.993 273.328C347.519 273.218 347.034 273.564 346.91 274.102Z" fill="#5D1AB5"/>
<path d="M337.558 270.921L304.16 263.215C303.685 263.106 303.2 263.452 303.077 263.988C302.953 264.525 303.237 265.049 303.712 265.159L337.11 272.865C337.585 272.974 338.07 272.627 338.193 272.091C338.318 271.554 338.033 271.03 337.558 270.921Z" fill="#5D1AB5"/>
<path d="M295.188 276.554L246.731 265.375C245.646 265.125 244.97 264.042 245.22 262.956L253.414 227.443C253.664 226.357 254.747 225.681 255.833 225.932L304.29 237.111C305.375 237.361 306.051 238.444 305.801 239.53L297.607 275.043C297.357 276.127 296.274 276.805 295.188 276.554Z" fill="white"/>
<path d="M297.49 275.542L298.812 269.814L285.796 243.229L266.359 258.542L260.693 250.745L246.086 259.196L245.103 263.455C244.917 264.264 245.421 265.072 246.23 265.259L295.686 276.67C296.497 276.857 297.304 276.352 297.49 275.542Z" fill="#9351EF"/>
<path d="M266.098 240.191C268.543 240.191 270.525 238.209 270.525 235.764C270.525 233.318 268.543 231.336 266.098 231.336C263.652 231.336 261.67 233.318 261.67 235.764C261.67 238.209 263.652 240.191 266.098 240.191Z" fill="#FF7C06"/>
<path opacity="0.0556" d="M315.382 366.797C368.875 366.797 412.239 360.744 412.239 353.277C412.239 345.81 368.875 339.756 315.382 339.756C261.89 339.756 218.526 345.81 218.526 353.277C218.526 360.744 261.89 366.797 315.382 366.797Z" fill="#FDFCFF"/>
<path opacity="0.1111" d="M315.382 366.133C366.247 366.133 407.482 360.377 407.482 353.277C407.482 346.176 366.247 340.421 315.382 340.421C264.516 340.421 223.281 346.176 223.281 353.277C223.281 360.377 264.516 366.133 315.382 366.133Z" fill="#FAF9FE"/>
<path opacity="0.1667" d="M315.383 365.47C363.622 365.47 402.727 360.011 402.727 353.277C402.727 346.543 363.622 341.084 315.383 341.084C267.145 341.084 228.04 346.543 228.04 353.277C228.04 360.011 267.145 365.47 315.383 365.47Z" fill="#F8F5FE"/>
<path opacity="0.2222" d="M315.383 364.805C360.995 364.805 397.97 359.644 397.97 353.277C397.97 346.91 360.995 341.748 315.383 341.748C269.771 341.748 232.795 346.91 232.795 353.277C232.795 359.644 269.771 364.805 315.383 364.805Z" fill="#F5F2FD"/>
<path opacity="0.2778" d="M315.383 364.141C358.368 364.141 393.215 359.277 393.215 353.277C393.215 347.277 358.368 342.412 315.383 342.412C272.397 342.412 237.551 347.277 237.551 353.277C237.551 359.277 272.397 364.141 315.383 364.141Z" fill="#F3EFFD"/>
<path opacity="0.3333" d="M315.383 363.478C355.741 363.478 388.458 358.911 388.458 353.277C388.458 347.643 355.741 343.075 315.383 343.075C275.024 343.075 242.308 347.643 242.308 353.277C242.308 358.911 275.024 363.478 315.383 363.478Z" fill="#F0ECFC"/>
<path opacity="0.3889" d="M315.383 362.813C353.115 362.813 383.702 358.544 383.702 353.277C383.702 348.01 353.115 343.74 315.383 343.74C277.651 343.74 247.063 348.01 247.063 353.277C247.063 358.544 277.651 362.813 315.383 362.813Z" fill="#EEE9FC"/>
<path opacity="0.4444" d="M315.383 362.149C350.487 362.149 378.945 358.177 378.945 353.277C378.945 348.377 350.487 344.404 315.383 344.404C280.278 344.404 251.82 348.377 251.82 353.277C251.82 358.177 280.278 362.149 315.383 362.149Z" fill="#EBE6FB"/>
<path opacity="0.5" d="M315.382 361.486C347.86 361.486 374.189 357.811 374.189 353.277C374.189 348.743 347.86 345.067 315.382 345.067C282.904 345.067 256.575 348.743 256.575 353.277C256.575 357.811 282.904 361.486 315.382 361.486Z" fill="#E9E3FB"/>
<path opacity="0.5556" d="M315.382 360.822C345.234 360.822 369.433 357.444 369.433 353.277C369.433 349.11 345.234 345.732 315.382 345.732C285.531 345.732 261.331 349.11 261.331 353.277C261.331 357.444 285.531 360.822 315.382 360.822Z" fill="#E6DFFB"/>
<path opacity="0.6111" d="M315.382 360.157C342.606 360.157 364.676 357.077 364.676 353.277C364.676 349.477 342.606 346.396 315.382 346.396C288.158 346.396 266.088 349.477 266.088 353.277C266.088 357.077 288.158 360.157 315.382 360.157Z" fill="#E4DCFA"/>
<path opacity="0.6667" d="M315.382 359.494C339.98 359.494 359.92 356.711 359.92 353.277C359.92 349.843 339.98 347.059 315.382 347.059C290.784 347.059 270.844 349.843 270.844 353.277C270.844 356.711 290.784 359.494 315.382 359.494Z" fill="#E1D9FA"/>
<path opacity="0.7222" d="M315.382 358.83C337.354 358.83 355.165 356.344 355.165 353.277C355.165 350.21 337.354 347.724 315.382 347.724C293.411 347.724 275.6 350.21 275.6 353.277C275.6 356.344 293.411 358.83 315.382 358.83Z" fill="#DFD6F9"/>
<path opacity="0.7778" d="M315.383 358.167C334.727 358.167 350.409 355.977 350.409 353.277C350.409 350.576 334.727 348.387 315.383 348.387C296.039 348.387 280.357 350.576 280.357 353.277C280.357 355.977 296.039 358.167 315.383 358.167Z" fill="#DCD3F9"/>
<path opacity="0.8333" d="M315.383 357.502C332.101 357.502 345.653 355.61 345.653 353.277C345.653 350.943 332.101 349.051 315.383 349.051C298.666 349.051 285.113 350.943 285.113 353.277C285.113 355.61 298.666 357.502 315.383 357.502Z" fill="#DAD0F8"/>
<path opacity="0.8889" d="M315.383 356.838C329.473 356.838 340.896 355.244 340.896 353.277C340.896 351.31 329.473 349.716 315.383 349.716C301.293 349.716 289.87 351.31 289.87 353.277C289.87 355.244 301.293 356.838 315.383 356.838Z" fill="#D7CCF8"/>
<path opacity="0.9444" d="M315.383 356.175C326.847 356.175 336.14 354.877 336.14 353.277C336.14 351.676 326.847 350.379 315.383 350.379C303.919 350.379 294.626 351.676 294.626 353.277C294.626 354.877 303.919 356.175 315.383 356.175Z" fill="#D4C9F7"/>
<path d="M315.382 355.51C324.22 355.51 331.384 354.51 331.384 353.277C331.384 352.043 324.22 351.043 315.382 351.043C306.545 351.043 299.381 352.043 299.381 353.277C299.381 354.51 306.545 355.51 315.382 355.51Z" fill="#D2C6F7"/>
<path d="M362.081 350.667H299.591C295.872 350.667 293.678 346.497 295.784 343.432L327.028 297.966C328.863 295.296 332.807 295.296 334.642 297.966L365.886 343.432C367.994 346.497 365.8 350.667 362.081 350.667Z" fill="url(#paint2_linear_1751_2183)"/>
<path d="M328.412 331.021L326.59 307.09C326.59 304.746 328.49 302.845 330.835 302.845C333.179 302.845 335.08 304.745 335.08 307.09L333.284 331.018C333.162 332.272 332.109 333.229 330.848 333.229C329.588 333.229 328.535 332.275 328.412 331.021ZM326.926 339.862C326.926 337.695 328.684 335.939 330.849 335.939C333.016 335.939 334.772 337.697 334.772 339.862C334.772 342.03 333.015 343.785 330.849 343.785C328.682 343.785 326.926 342.028 326.926 339.862Z" fill="url(#paint3_linear_1751_2183)"/>
<path d="M312.738 220.707C312.12 221.288 311.351 221.709 310.493 221.897C311.548 222.177 312.574 222.563 313.551 223.055C314.081 222.681 314.562 222.24 314.972 221.74C314.252 221.341 313.504 220.999 312.738 220.707Z" fill="#FF7C06"/>
<path d="M305.31 219.571C305.064 219.587 304.818 219.607 304.572 219.634L302.851 219.816C303.095 220.445 303.422 221.028 303.82 221.549L304.766 221.449C305.546 221.365 306.331 221.346 307.111 221.381C306.364 220.955 305.736 220.333 305.31 219.571Z" fill="#9351EF"/>
<path opacity="0.0556" d="M205.509 398.219C270.569 398.219 323.311 390.857 323.311 381.775C323.311 372.693 270.569 365.331 205.509 365.331C140.449 365.331 87.708 372.693 87.708 381.775C87.708 390.857 140.449 398.219 205.509 398.219Z" fill="#FDFCFF"/>
<path opacity="0.1111" d="M205.51 397.412C267.375 397.412 317.526 390.411 317.526 381.775C317.526 373.139 267.375 366.138 205.51 366.138C143.645 366.138 93.4932 373.139 93.4932 381.775C93.4932 390.411 143.645 397.412 205.51 397.412Z" fill="#FAF9FE"/>
<path opacity="0.1667" d="M205.509 396.605C264.179 396.605 311.741 389.965 311.741 381.775C311.741 373.585 264.179 366.946 205.509 366.946C146.839 366.946 99.2773 373.585 99.2773 381.775C99.2773 389.965 146.839 396.605 205.509 396.605Z" fill="#F8F5FE"/>
<path opacity="0.2222" d="M205.509 395.796C260.985 395.796 305.956 389.519 305.956 381.775C305.956 374.032 260.985 367.754 205.509 367.754C150.034 367.754 105.062 374.032 105.062 381.775C105.062 389.519 150.034 395.796 205.509 395.796Z" fill="#F5F2FD"/>
<path opacity="0.2778" d="M205.509 394.989C257.789 394.989 300.171 389.073 300.171 381.775C300.171 374.478 257.789 368.562 205.509 368.562C153.228 368.562 110.847 374.478 110.847 381.775C110.847 389.073 153.228 394.989 205.509 394.989Z" fill="#F3EFFD"/>
<path opacity="0.3333" d="M205.51 394.182C254.596 394.182 294.387 388.627 294.387 381.775C294.387 374.923 254.596 369.369 205.51 369.369C156.425 369.369 116.633 374.923 116.633 381.775C116.633 388.627 156.425 394.182 205.51 394.182Z" fill="#F0ECFC"/>
<path opacity="0.3889" d="M205.509 393.375C251.4 393.375 288.602 388.181 288.602 381.775C288.602 375.369 251.4 370.176 205.509 370.176C159.619 370.176 122.417 375.369 122.417 381.775C122.417 388.181 159.619 393.375 205.509 393.375Z" fill="#EEE9FC"/>
<path opacity="0.4444" d="M205.51 392.567C248.206 392.567 282.817 387.736 282.817 381.775C282.817 375.815 248.206 370.983 205.51 370.983C162.814 370.983 128.202 375.815 128.202 381.775C128.202 387.736 162.814 392.567 205.51 392.567Z" fill="#EBE6FB"/>
<path opacity="0.5" d="M205.509 391.759C245.01 391.759 277.032 387.289 277.032 381.775C277.032 376.262 245.01 371.792 205.509 371.792C166.008 371.792 133.986 376.262 133.986 381.775C133.986 387.289 166.008 391.759 205.509 391.759Z" fill="#E9E3FB"/>
<path opacity="0.5556" d="M205.509 390.952C241.816 390.952 271.247 386.843 271.247 381.775C271.247 376.707 241.816 372.599 205.509 372.599C169.203 372.599 139.771 376.707 139.771 381.775C139.771 386.843 169.203 390.952 205.509 390.952Z" fill="#E6DFFB"/>
<path opacity="0.6111" d="M205.508 390.144C238.62 390.144 265.463 386.397 265.463 381.775C265.463 377.153 238.62 373.406 205.508 373.406C172.396 373.406 145.554 377.153 145.554 381.775C145.554 386.397 172.396 390.144 205.508 390.144Z" fill="#E4DCFA"/>
<path opacity="0.6667" d="M205.51 389.337C235.427 389.337 259.679 385.952 259.679 381.775C259.679 377.599 235.427 374.214 205.51 374.214C175.592 374.214 151.34 377.599 151.34 381.775C151.34 385.952 175.592 389.337 205.51 389.337Z" fill="#E1D9FA"/>
<path opacity="0.7222" d="M205.51 388.53C232.232 388.53 253.895 385.506 253.895 381.775C253.895 378.045 232.232 375.021 205.51 375.021C178.788 375.021 157.125 378.045 157.125 381.775C157.125 385.506 178.788 388.53 205.51 388.53Z" fill="#DFD6F9"/>
<path opacity="0.7778" d="M205.509 387.721C229.037 387.721 248.109 385.059 248.109 381.775C248.109 378.491 229.037 375.829 205.509 375.829C181.982 375.829 162.909 378.491 162.909 381.775C162.909 385.059 181.982 387.721 205.509 387.721Z" fill="#DCD3F9"/>
<path opacity="0.8333" d="M205.51 386.914C225.842 386.914 242.325 384.613 242.325 381.775C242.325 378.937 225.842 376.637 205.51 376.637C185.177 376.637 168.694 378.937 168.694 381.775C168.694 384.613 185.177 386.914 205.51 386.914Z" fill="#DAD0F8"/>
<path opacity="0.8889" d="M205.509 386.107C222.647 386.107 236.539 384.168 236.539 381.775C236.539 379.383 222.647 377.444 205.509 377.444C188.371 377.444 174.479 379.383 174.479 381.775C174.479 384.168 188.371 386.107 205.509 386.107Z" fill="#D7CCF8"/>
<path opacity="0.9444" d="M205.509 385.3C219.452 385.3 230.755 383.722 230.755 381.775C230.755 379.829 219.452 378.251 205.509 378.251C191.567 378.251 180.264 379.829 180.264 381.775C180.264 383.722 191.567 385.3 205.509 385.3Z" fill="#D4C9F7"/>
<path d="M205.51 384.492C216.258 384.492 224.971 383.276 224.971 381.775C224.971 380.275 216.258 379.058 205.51 379.058C194.762 379.058 186.049 380.275 186.049 381.775C186.049 383.276 194.762 384.492 205.51 384.492Z" fill="#D2C6F7"/>
<path d="M169.38 352.861L168.861 381.845L250.071 379.123C250.071 379.123 253.334 360.471 237.171 354.293C231.393 352.085 229.794 333.864 229.794 333.864L169.38 352.861Z" fill="#5D1AB5"/>
<path d="M169.109 361.223L168.858 375.222L183.207 375.227C181.528 368.466 176.099 363.077 169.109 361.223Z" fill="#FF7C06"/>
<path d="M216.023 352.895C224.026 348.92 229.472 348.041 232.77 348.059C232.556 347.45 232.357 346.822 232.173 346.182C228.514 346.271 222.942 347.351 215.125 351.234C214.646 351.473 214.46 352.037 214.707 352.495C214.954 352.953 215.54 353.134 216.023 352.895Z" fill="#FF7C06"/>
<path d="M217.799 358.242C226.985 353.678 232.804 353.193 235.872 353.465C235.309 352.963 234.794 352.306 234.329 351.524C230.68 351.545 224.997 352.559 216.9 356.579C216.421 356.818 216.234 357.382 216.481 357.84C216.73 358.3 217.317 358.481 217.799 358.242Z" fill="#FF7C06"/>
<path d="M250.207 372.398L168.976 375.325L168.86 381.845L250.07 379.123C250.068 379.122 250.57 376.255 250.207 372.398Z" fill="#7C30D5"/>
<path d="M133.429 194.006C133.429 194.006 115.073 200.645 123.786 233.909C124.056 234.941 124.903 235.72 124.575 236.735L111.559 274.069L86.5635 335.385L144.365 338.51C144.365 338.51 157.948 287.726 161.437 267.33C164.926 246.935 161.437 201.438 161.437 201.438L133.429 194.006Z" fill="#7B30D3"/>
<path d="M144.764 213.48L176.965 262.433L168.577 354.132L230.675 340.463C230.675 340.463 223.3 264.677 216.616 249.856C205.574 225.373 185.031 197.469 165.155 194.155C151.009 191.797 144.764 213.48 144.764 213.48Z" fill="#9351EF"/>
<path d="M195.32 162.512C192.069 162.784 188.831 161.88 186.194 159.96C179.708 155.237 166.534 146.444 156.784 145.186C147.097 143.936 147.23 163.745 159.382 175.505C171.534 187.266 195.649 191.576 196.631 191.965C198.596 192.742 226.518 159.912 226.518 159.912L195.32 162.512Z" fill="#984EB9"/>
<path d="M136.518 150.387C136.518 150.387 139.53 140.849 156.711 145.136C180.534 151.082 176.276 204.092 176.276 204.092L153.085 212.637L130.675 205.075L136.518 150.387Z" fill="#BF71DE"/>
<path d="M176.558 193.004C176.375 177.981 173.86 152.312 159.311 146.024C160.57 146.879 163.111 149.67 166.899 158.75C172.537 172.262 170.8 198.964 170.8 198.964L176.558 193.004Z" fill="#7B30D3"/>
<path d="M176.279 204.046C176.28 204.029 176.282 204.001 176.285 203.973C176.286 203.957 176.288 203.942 176.289 203.922C176.29 203.894 176.293 203.857 176.296 203.823C176.299 203.775 176.303 203.721 176.307 203.66C176.31 203.625 176.312 203.591 176.314 203.552C176.317 203.506 176.32 203.455 176.324 203.403C176.327 203.365 176.329 203.325 176.331 203.284C176.334 203.228 176.338 203.171 176.343 203.109C176.345 203.062 176.348 203.01 176.351 202.961C176.358 202.838 176.365 202.706 176.374 202.565C176.377 202.52 176.378 202.476 176.381 202.429C176.385 202.34 176.391 202.247 176.395 202.152C176.398 202.108 176.399 202.063 176.402 202.018C176.419 201.677 176.436 201.297 176.453 200.881C176.454 200.84 176.456 200.801 176.459 200.758C176.464 200.628 176.468 200.494 176.474 200.357C176.476 200.307 176.478 200.256 176.48 200.205C176.497 199.743 176.511 199.245 176.525 198.715C176.526 198.674 176.526 198.635 176.528 198.594C176.532 198.424 176.536 198.252 176.539 198.076C176.541 198.027 176.541 197.976 176.542 197.925C176.553 197.362 176.562 196.769 176.566 196.148C176.566 196.094 176.567 196.041 176.567 195.987C176.569 195.793 176.57 195.597 176.57 195.397C176.57 195.331 176.57 195.265 176.57 195.198C176.572 194.568 176.569 193.912 176.562 193.233C176.56 193.152 176.56 193.07 176.559 192.99C176.556 192.786 176.553 192.581 176.55 192.375C176.549 192.28 176.548 192.185 176.545 192.091C176.532 191.416 176.515 190.722 176.492 190.011C176.49 189.902 176.485 189.794 176.481 189.683C176.474 189.474 176.467 189.262 176.459 189.05C176.454 188.927 176.449 188.804 176.443 188.68C176.423 188.181 176.399 187.676 176.374 187.163L173.032 178.33L155.776 180.918C155.776 180.918 155.123 151.104 145.5 144.253H145.499C145.429 144.263 145.374 144.27 145.309 144.28C144.136 144.472 143.117 144.765 142.223 145.117C144.276 147.24 145.626 154.781 146.888 165.084C148.545 178.597 146.104 186.211 146.104 186.211C146.104 186.211 139.858 192.451 132.134 191.412L130.675 205.073L153.085 212.635L176.276 204.089C176.276 204.089 176.278 204.075 176.279 204.055C176.278 204.055 176.278 204.049 176.279 204.046Z" fill="#7B30D3"/>
<path d="M251.923 141.93C251.923 141.93 250.014 134.322 248.404 128.325C247.784 126.013 244.526 125.936 243.667 128.212L240.186 137.437C238.794 141.129 234.689 143.079 231.017 141.797L225.836 139.986C222.165 138.703 220.317 134.671 221.71 130.98L225.583 120.712C225.852 119.998 225.22 119.298 224.48 119.492L220.352 120.574C217.365 121.357 212.423 128.644 210.393 137.003C208.349 145.419 216.407 147.598 206.436 158.36L150.004 228.283L150.072 228.346L142.069 238.234C141.977 238.255 141.886 238.275 141.795 238.297L127.718 241.963C121.721 243.525 117.996 249.594 119.398 255.52C119.398 255.52 121.295 263.131 122.897 269.131C123.515 271.444 126.77 271.526 127.633 269.251L131.127 260.031C132.525 256.343 136.634 254.396 140.304 255.686L145.482 257.504C149.152 258.791 150.993 262.826 149.594 266.516L145.705 276.778C145.435 277.49 146.067 278.193 146.807 278.001L150.936 276.925C153.925 276.146 158.877 268.865 160.919 260.509C162.976 252.096 154.921 249.906 164.907 239.158L229.274 159.251C229.366 159.229 229.458 159.21 229.548 159.186L243.62 155.5C249.617 153.93 253.334 147.854 251.923 141.93Z" fill="url(#paint4_linear_1751_2183)"/>
<path d="M223.578 166.723C223.578 166.723 217.566 173.527 212.191 170.899C206.816 168.271 204.944 160.459 204.944 160.459L202.474 161.081C201.414 161.349 200.522 162.071 200.033 163.056L198.732 165.679H198.337C196.268 165.679 194.592 167.369 194.592 169.456L193.288 171.227C191.621 171.647 190.451 173.159 190.451 174.892V177.162C189.181 177.802 188.38 179.11 188.38 180.541V184.088C188.38 184.088 189.371 188.76 194.592 190.734C199.456 192.573 203.963 192.973 206.854 192.988C208.751 192.998 210.402 191.681 210.862 189.825L211.154 188.645C213.442 188.645 215.295 186.775 215.295 184.469V183.425L216.781 182.675C218.408 181.854 219.436 180.177 219.436 178.343V176.116L221.807 174.681C223.499 173.658 224.398 171.694 224.074 169.73L223.578 166.723Z" fill="#FFC8BD"/>
<path d="M198.043 164.825C197.82 165.891 197.872 166.957 198.227 167.99C198.566 168.977 199.079 169.89 199.53 170.829C200.473 172.794 201.679 174.527 202.993 176.262C203.4 176.799 204.071 177.08 204.704 176.71C205.235 176.4 205.564 175.541 205.153 174.998C203.967 173.431 202.776 171.852 201.927 170.071C201.268 168.689 200.123 167.081 200.456 165.489C200.595 164.829 200.263 164.138 199.583 163.951C198.962 163.782 198.182 164.161 198.043 164.825Z" fill="#F7AAA1"/>
<path d="M202.205 179.934C200.705 178.416 199.296 176.795 198.08 175.037C197.537 174.253 197.028 173.44 196.6 172.586C196.28 171.951 196.051 171.423 195.914 170.603C195.802 169.935 194.978 169.564 194.376 169.729C193.669 169.923 193.391 170.598 193.502 171.267C193.808 173.086 194.889 174.807 195.92 176.298C197.254 178.229 198.787 180.032 200.435 181.701C201.569 182.851 203.337 181.081 202.205 179.934Z" fill="#F7AAA1"/>
<path d="M189.888 177.899C190.533 179.189 191.299 180.421 192.123 181.603C193.069 182.961 194.097 184.279 195.26 185.459C195.72 185.926 196.575 185.954 197.029 185.459C197.49 184.957 197.519 184.188 197.029 183.691C195.882 182.527 195.088 181.505 194.214 180.24C193.417 179.088 192.675 177.89 192.048 176.636C191.756 176.05 190.879 175.838 190.336 176.188C189.737 176.574 189.576 177.271 189.888 177.899Z" fill="#F7AAA1"/>
<path d="M188.379 184.506C187.918 184.506 187.545 184.133 187.545 183.672V180.125C187.545 178.672 188.957 177.066 189.616 176.397V174.476C189.616 172.357 191.042 170.518 193.084 170.003L193.758 169.834V169.041C193.758 166.54 195.746 164.497 198.214 164.431L199.286 162.27C199.884 161.065 200.972 160.185 202.27 159.857L205.557 159.029L205.755 159.849C205.773 159.924 207.605 167.313 212.557 169.735C212.972 169.937 213.143 170.436 212.94 170.85C212.738 171.264 212.238 171.435 211.825 171.233C207.161 168.953 205.017 163.198 204.361 161.052L202.678 161.476C201.853 161.684 201.162 162.245 200.78 163.013L199.25 166.099H198.337C196.731 166.099 195.426 167.419 195.426 169.042V171.134L193.492 171.622C192.193 171.95 191.286 173.123 191.286 174.478V177.108L191.024 177.356C190.273 178.064 189.216 179.393 189.216 180.128V183.675C189.213 184.133 188.84 184.506 188.379 184.506Z" fill="#F7AAA1"/>
<path d="M86.4715 334.435L78.3301 360.241L151.743 379.316C151.743 379.316 159.605 363.484 146.772 353.673C142.185 350.167 145.582 333.431 145.582 333.431L86.4715 334.435Z" fill="#5D1AB5"/>
<path d="M84.0169 341.849L80.084 354.313L92.9274 358.119C93.2143 351.621 89.7819 345.359 84.0169 341.849Z" fill="#FF7C06"/>
<path d="M128.213 346.821C136.43 345.381 141.537 346.037 144.485 346.928C144.455 346.326 144.442 345.712 144.448 345.09C141.15 344.2 135.875 343.692 127.85 345.096C127.358 345.182 127.041 345.637 127.142 346.114C127.241 346.589 127.718 346.907 128.213 346.821Z" fill="#FF7C06"/>
<path d="M128.387 352.077C137.818 350.425 143.156 351.532 145.83 352.588C145.459 351.989 145.172 351.265 144.963 350.444C141.692 349.495 136.335 348.897 128.023 350.352C127.531 350.438 127.214 350.893 127.314 351.37C127.415 351.846 127.893 352.163 128.387 352.077Z" fill="#FF7C06"/>
<path d="M153.647 373.333L80.1608 354.436L78.3301 360.241L151.743 379.316C151.743 379.316 152.952 376.883 153.647 373.333Z" fill="#7C30D5"/>
<path d="M145.965 136.65L145.163 144.439C145.163 144.439 150.268 152.018 156.218 149.554C162.168 147.09 158.442 141.286 158.442 141.286L145.965 136.65Z" fill="#FFC8BD"/>
<path d="M163.184 122.616C161.362 115.374 151.899 113.106 146.062 116.078C140.69 118.814 138.74 125.592 141.283 131.787C141.112 131.844 140.944 131.913 140.781 132.003C139.259 132.846 138.814 134.849 139.788 136.478C140.762 138.106 142.785 138.744 144.309 137.901C144.607 137.736 144.863 137.525 145.076 137.282C149.06 140.992 155.651 145.011 160.159 142.715C165.997 139.74 165.299 131.022 163.184 122.616Z" fill="#FFC8BD"/>
<path d="M152.512 130.204C152.959 129.96 152.935 129.055 152.458 128.183C151.982 127.311 151.233 126.802 150.786 127.046C150.34 127.29 150.364 128.195 150.84 129.067C151.317 129.939 152.066 130.449 152.512 130.204Z" fill="#5D1AB5"/>
<path d="M160.143 126.203C160.59 125.959 160.566 125.054 160.089 124.182C159.612 123.31 158.864 122.8 158.417 123.044C157.971 123.289 157.995 124.193 158.471 125.066C158.948 125.938 159.696 126.447 160.143 126.203Z" fill="#5D1AB5"/>
<path d="M157.105 134.44C156.918 134.44 156.748 134.314 156.702 134.125C156.645 133.902 156.781 133.677 157.004 133.62C157.64 133.461 158.763 133.138 159.064 132.95C159.159 132.891 159.21 132.812 159.219 132.706C159.232 132.564 159.184 132.161 158.449 131.487C157.232 130.37 155.901 128.238 155.845 128.148C155.723 127.953 155.784 127.697 155.979 127.575C156.174 127.454 156.432 127.513 156.552 127.708C156.564 127.73 157.879 129.835 159.012 130.874C159.754 131.555 160.102 132.197 160.048 132.782C160.014 133.148 159.82 133.458 159.502 133.656C158.992 133.972 157.386 134.381 157.205 134.426C157.171 134.436 157.137 134.44 157.105 134.44Z" fill="#F7AAA1"/>
<path d="M156.149 138.512C155.008 138.512 154.059 138.274 153.991 138.256C153.769 138.199 153.635 137.972 153.692 137.75C153.748 137.528 153.976 137.392 154.198 137.45C154.223 137.456 156.727 138.082 158.259 137.237C158.46 137.125 158.713 137.199 158.825 137.401C158.936 137.601 158.863 137.855 158.661 137.966C157.896 138.387 156.973 138.512 156.149 138.512Z" fill="#F7AAA1"/>
<path d="M140.78 132.003C140.943 131.914 141.111 131.845 141.282 131.787C138.739 125.592 140.687 118.813 146.06 116.078C150.635 113.748 156.332 115.043 160.326 118.88C162.876 115.976 163.239 112.292 161.599 109.121C159.336 104.743 152.475 105.241 146.108 108.414C139.742 111.588 140.476 116.942 139.455 117.917C138.435 118.893 134.626 118.412 132.321 122.31C131.167 124.259 131.199 126.497 132.002 128.547C133.928 133.456 136.957 135.416 139.601 136.124C138.883 134.569 139.365 132.785 140.78 132.003Z" fill="url(#paint5_linear_1751_2183)"/>
<path d="M144.95 136.165C144.95 136.165 134.571 129.365 143.267 117.668C144.104 116.543 139.741 111.588 146.108 108.414C152.474 105.241 159.336 104.743 161.599 109.121C163.863 113.499 162.312 118.856 156.455 121.786C150.598 124.716 144.009 125.889 143.206 129.839C142.403 133.789 144.95 136.165 144.95 136.165Z" fill="url(#paint6_linear_1751_2183)"/>
<path d="M142.032 131.719C141.876 131.731 141.719 131.664 141.628 131.53C141.55 131.415 139.737 128.676 142.37 124.736C143.71 122.73 147.302 121.552 151.106 120.307C154.358 119.241 157.721 118.139 159.241 116.555C162.371 113.29 160.572 106.208 160.554 106.136C160.495 105.907 160.64 105.675 160.879 105.615C161.119 105.557 161.36 105.695 161.419 105.924C161.5 106.232 163.352 113.525 159.895 117.13C158.221 118.876 154.748 120.014 151.389 121.115C147.899 122.259 144.289 123.441 143.119 125.194C140.813 128.644 142.31 130.964 142.375 131.062C142.507 131.26 142.447 131.524 142.241 131.653C142.176 131.692 142.104 131.715 142.032 131.719Z" fill="#5D1AB5"/>
<path d="M135.876 131.692C135.73 131.703 135.582 131.646 135.487 131.525C135.44 131.466 130.83 125.499 135.331 121.963C137.209 120.487 139.314 121.296 140.463 122.13C141.007 121.355 142.335 119.739 144.554 118.654C146.823 117.544 148.886 117.264 150.705 117.018C153.116 116.692 155.02 116.434 156.59 114.431C159.185 111.122 156.196 107.872 156.067 107.736C155.903 107.562 155.919 107.292 156.101 107.132C156.285 106.974 156.565 106.987 156.73 107.16C156.767 107.199 160.342 111.062 157.302 114.941C155.508 117.23 153.338 117.523 150.824 117.863C149.074 118.1 147.09 118.368 144.956 119.413C142.266 120.729 140.971 122.956 140.958 122.978C140.891 123.096 140.771 123.176 140.634 123.197C140.496 123.217 140.357 123.176 140.258 123.084C140.165 122.999 137.945 121.012 135.895 122.623C132.059 125.637 136.031 130.793 136.202 131.011C136.349 131.199 136.31 131.466 136.113 131.609C136.04 131.658 135.958 131.685 135.876 131.692Z" fill="#5D1AB5"/>
<path d="M172.37 209.76C170.909 208.844 169.306 208.28 167.671 208.046L159.294 216.774L150.007 228.283L150.074 228.346L143.846 236.042C146.492 236.818 149.081 237.152 151.618 236.922C157.474 236.389 169.489 231.161 169.489 231.161L171.085 231.492L182.934 216.781C179.639 214.406 175.695 211.847 172.37 209.76Z" fill="#FF7C06"/>
<path d="M139.116 147.182C133.001 146.827 115.173 168.804 110.498 175.196C105.823 181.587 92.2921 198.899 107.38 211.33C122.469 223.76 135.787 234.858 147.994 233.748C154.185 233.185 166.885 227.659 166.885 227.659L174.125 229.162C176.947 228.374 179.636 233.252 181.842 231.045C183.178 229.709 187.336 226.168 188.519 224.368C190.004 222.109 189.018 219.28 186.838 217.1C183.604 213.866 175.843 208.745 169.932 205.036C165.463 202.232 159.734 202.469 155.512 205.635L149.104 210.442C149.104 210.442 132.456 196.349 132.456 191.575C132.456 189.355 144.06 160.83 144.363 154.006C144.364 154.006 145.232 147.535 139.116 147.182Z" fill="#FFC8BD"/>
<path d="M169.509 207.073C169.675 207.138 169.84 207.206 170.005 207.274C169.716 207.155 170.242 207.377 170.304 207.404C170.684 207.572 171.062 207.747 171.435 207.928C172.231 208.314 173.014 208.726 173.786 209.158C175.443 210.086 177.049 211.105 178.595 212.206C180.156 213.316 181.589 214.464 183.041 215.841C183.7 216.467 184.336 217.119 184.933 217.803C185.075 217.967 185.217 218.132 185.354 218.301C185.413 218.371 185.747 218.794 185.621 218.629C185.87 218.952 186.107 219.287 186.332 219.628C186.577 220 186.806 220.382 187.014 220.776C187.108 220.955 187.199 221.138 187.284 221.322C187.305 221.37 187.442 221.706 187.32 221.398C187.359 221.496 187.398 221.594 187.435 221.693C187.564 222.043 187.67 222.4 187.747 222.765C187.767 222.861 187.78 222.959 187.801 223.053C187.862 223.323 187.793 222.783 187.804 223.08C187.811 223.27 187.831 223.458 187.834 223.647C187.894 223.422 187.955 223.198 188.016 222.973C188.043 222.932 187.726 223.374 187.855 223.198C187.711 223.275 187.703 223.29 187.832 223.24C187.793 223.251 187.754 223.264 187.715 223.275C187.873 223.264 187.872 223.261 187.712 223.267C187.863 223.298 187.859 223.297 187.698 223.261C187.552 223.209 187.532 223.209 187.64 223.26C187.575 223.23 187.511 223.198 187.448 223.164C186.763 222.793 186.212 222.178 185.672 221.593C184.506 220.325 182.621 222.218 183.783 223.482C184.798 224.586 186.055 225.857 187.65 225.933C188.436 225.971 189.201 225.614 189.745 225.059C190.077 224.722 190.404 224.299 190.479 223.824C190.52 223.561 190.496 223.295 190.469 223.032C190.254 221.004 189.314 219.153 188.115 217.529C185.189 213.565 181.094 210.463 176.927 207.903C174.788 206.588 172.556 205.416 170.219 204.494C169.547 204.23 168.753 204.784 168.576 205.428C168.368 206.188 168.835 206.807 169.509 207.073Z" fill="#F7AAA1"/>
<path d="M165.408 211.163C168.282 212.018 170.904 213.136 173.463 214.727C175.985 216.293 178.142 218.11 180.346 220.13C181.701 221.371 182.99 222.659 184.165 224.073C184.32 224.261 184.473 224.45 184.624 224.641C184.447 224.418 184.676 224.712 184.717 224.765C184.802 224.88 184.887 224.996 184.969 225.113C185.226 225.479 185.465 225.858 185.669 226.257C185.751 226.417 185.749 226.499 185.68 226.267C185.704 226.346 185.732 226.425 185.759 226.503C185.785 226.575 185.793 226.787 185.782 226.542C185.765 226.185 185.727 226.842 185.789 226.463C185.829 226.22 185.81 226.333 185.796 226.384C185.749 226.558 185.885 226.182 185.878 226.195C185.847 226.254 185.857 226.303 185.929 226.134C186.028 225.899 185.986 226.11 185.874 226.155C185.751 226.206 185.888 226.141 185.92 226.12C185.874 226.149 185.829 226.179 185.782 226.206C185.519 226.357 185.905 226.21 185.619 226.277C185.553 226.292 185.485 226.308 185.419 226.325C185.245 226.371 185.648 226.32 185.467 226.315C185.327 226.311 185.188 226.316 185.05 226.308C184.894 226.299 185.129 226.319 185.14 226.322C185.051 226.304 184.962 226.288 184.874 226.265C184.73 226.23 184.589 226.183 184.447 226.137C184.394 226.118 184.341 226.097 184.288 226.077C184.406 226.121 184.405 226.134 184.289 226.077C184.149 226.009 184.009 225.943 183.872 225.868C183.598 225.72 183.333 225.556 183.076 225.38C182.95 225.296 182.827 225.208 182.706 225.117C182.661 225.085 182.617 225.051 182.573 225.017C182.441 224.918 182.737 225.156 182.546 224.994C182.348 224.826 182.146 224.665 181.952 224.491C181.706 224.272 181.467 224.044 181.234 223.811C180.017 222.595 178.128 224.483 179.345 225.7C180.882 227.235 182.851 228.826 185.102 228.982C186.343 229.069 188.041 228.389 188.377 227.067C188.643 226.024 188.061 224.949 187.507 224.104C186.405 222.424 185.007 220.886 183.571 219.485C181.305 217.278 178.872 215.181 176.272 213.377C173.172 211.226 169.731 209.659 166.119 208.584C164.468 208.097 163.762 210.674 165.408 211.163Z" fill="#F7AAA1"/>
<path d="M166.395 216.881C170.66 218.281 174.778 220.995 178.054 224.109C178.795 224.813 179.504 225.554 180.153 226.344C180.227 226.433 180.299 226.525 180.372 226.616C180.61 226.91 180.22 226.402 180.439 226.702C180.555 226.862 180.672 227.02 180.784 227.183C181.014 227.518 181.23 227.864 181.421 228.223C181.503 228.377 181.574 228.536 181.65 228.693C181.505 228.391 181.642 228.676 181.69 228.82C181.737 228.958 181.773 229.1 181.809 229.241C181.819 229.282 181.86 229.401 181.847 229.442C181.816 229.196 181.809 229.141 181.823 229.281C181.826 229.322 181.828 229.364 181.83 229.405C181.828 229.44 181.827 229.49 181.83 229.527C181.855 229.784 181.714 229.473 181.857 229.404C181.855 229.405 181.775 229.726 181.773 229.725C181.718 229.665 181.947 229.38 181.816 229.6C181.681 229.824 181.855 229.488 181.902 229.507C181.899 229.505 181.8 229.62 181.79 229.628C181.686 229.72 181.69 229.839 181.885 229.566C181.828 229.645 181.667 229.703 181.585 229.75C181.437 229.824 181.418 229.833 181.53 229.78C181.45 229.808 181.368 229.831 181.283 229.85C180.972 229.942 181.464 229.891 181.151 229.86C181.071 229.862 180.992 229.857 180.912 229.85C181.069 229.874 181.071 229.872 180.914 229.842C180.837 229.818 180.758 229.802 180.682 229.778C180.606 229.754 180.529 229.727 180.454 229.698C180.587 229.753 180.582 229.747 180.44 229.681C180.19 229.531 179.943 229.391 179.705 229.22C179.924 229.378 179.602 229.136 179.585 229.122C179.461 229.019 179.339 228.913 179.22 228.804C179.052 228.652 178.888 228.495 178.725 228.336C178.375 227.997 178.03 227.669 177.634 227.381C177.05 226.957 176.145 227.282 175.808 227.86C175.413 228.536 175.702 229.261 176.287 229.686C175.935 229.431 176.328 229.734 176.445 229.846C176.603 229.996 176.759 230.149 176.916 230.3C177.357 230.725 177.816 231.123 178.308 231.487C179.352 232.264 180.632 232.713 181.933 232.437C183.943 232.012 184.874 230.185 184.322 228.288C183.785 226.438 182.441 224.825 181.154 223.442C179.407 221.563 177.392 219.922 175.283 218.466C172.764 216.727 170.021 215.261 167.106 214.305C166.421 214.081 165.649 214.567 165.464 215.238C165.263 215.964 165.707 216.655 166.395 216.881Z" fill="#F7AAA1"/>
<path d="M168.359 222.362C168.535 222.426 168.712 222.491 168.887 222.559C168.953 222.584 169.018 222.611 169.083 222.636C169.297 222.722 168.937 222.571 169.148 222.663C169.461 222.797 169.77 222.943 170.074 223.097C170.656 223.391 171.22 223.719 171.764 224.08C172.022 224.251 172.273 224.43 172.521 224.615C172.689 224.741 172.374 224.497 172.535 224.627C172.581 224.663 172.628 224.7 172.673 224.738C172.809 224.849 172.942 224.96 173.072 225.076C173.479 225.434 173.865 225.816 174.22 226.226C174.296 226.315 174.37 226.405 174.445 226.496C174.597 226.679 174.326 226.323 174.5 226.571C174.638 226.768 174.776 226.968 174.897 227.177C174.942 227.256 175.218 227.649 175.183 227.731C175.21 227.668 175.072 227.439 175.177 227.735C175.21 227.827 175.239 227.921 175.265 228.015C175.286 228.093 175.297 228.175 175.32 228.253C175.371 228.427 175.308 227.906 175.314 228.226C175.316 228.299 175.317 228.373 175.318 228.447C175.318 228.478 175.313 228.507 175.314 228.538C175.323 228.741 175.378 228.299 175.335 228.391C175.311 228.444 175.3 228.531 175.287 228.589C175.228 228.861 175.396 228.432 175.313 228.536C175.28 228.577 175.224 228.663 175.208 228.708C175.161 228.842 175.424 228.49 175.308 228.577C175.275 228.602 175.234 228.654 175.205 228.685C175.007 228.907 175.393 228.564 175.232 228.674C175.191 228.702 175.136 228.726 175.098 228.756C175.153 228.712 175.328 228.659 175.156 228.714C175.419 228.63 175.327 228.708 175.221 228.697C175.18 228.692 174.893 228.661 175.087 228.695C175.262 228.726 175.075 228.688 175.05 228.68C174.958 228.651 174.866 228.632 174.774 228.601C174.739 228.589 174.507 228.506 174.657 228.564C174.805 228.622 174.483 228.48 174.486 228.482C174.342 228.41 174.2 228.331 174.063 228.247C173.93 228.167 173.803 228.078 173.676 227.99C173.466 227.847 173.65 227.967 173.688 228.001C173.613 227.938 173.54 227.874 173.468 227.808C172.938 227.318 172.104 227.283 171.579 227.808C171.084 228.302 171.046 229.206 171.579 229.696C172.682 230.713 174.5 231.774 176.045 231.233C177.228 230.819 177.949 229.667 177.99 228.444C178.026 227.368 177.535 226.282 176.943 225.411C176.134 224.222 175.105 223.248 173.967 222.38C172.487 221.252 170.819 220.411 169.07 219.785C168.411 219.549 167.58 220.051 167.427 220.718C167.256 221.469 167.655 222.109 168.359 222.362Z" fill="#F7AAA1"/>
<path d="M108.387 178.095C109.181 176.977 109.909 175.999 110.497 175.194C115.172 168.803 133 146.827 139.116 147.181C140.646 147.27 141.737 147.741 142.516 148.396C144.851 150.366 144.364 154.005 144.364 154.005C144.061 160.828 132.458 189.354 132.458 191.573C132.458 191.788 132.501 192.027 132.566 192.277C127.757 189.057 114.786 181.695 108.387 178.095Z" fill="#BF71DE"/>
<path d="M108.649 177.729C111.287 179.225 127.02 188.166 131.771 191.248C131.876 190.95 132.011 190.567 132.189 190.069C133.862 185.369 138.302 172.883 141.021 163.636C141.125 163.283 141.497 163.082 141.849 163.184C142.203 163.287 142.406 163.659 142.302 164.012C139.572 173.296 135.121 185.807 133.446 190.516C133.097 191.497 132.819 192.279 132.771 192.433C132.752 192.511 132.72 192.584 132.676 192.651C132.632 192.717 132.575 192.775 132.508 192.823C132.393 192.905 132.257 192.946 132.122 192.946C131.992 192.946 131.863 192.908 131.75 192.833C127.194 189.782 110.173 180.127 107.874 178.825C108.138 178.444 108.397 178.08 108.649 177.729Z" fill="#984EB9"/>
<defs>
<linearGradient id="paint0_linear_1751_2183" x1="304.317" y1="122.745" x2="174.088" y2="348.308" gradientUnits="userSpaceOnUse">
<stop offset="0.152" stop-color="#9251ED"/>
<stop offset="0.4177" stop-color="#7A41C1"/>
<stop offset="0.8116" stop-color="#5B2C85"/>
<stop offset="1" stop-color="#4F246E"/>
</linearGradient>
<linearGradient id="paint1_linear_1751_2183" x1="306.053" y1="223.295" x2="306.053" y2="292.96" gradientUnits="userSpaceOnUse">
<stop offset="0.2932" stop-color="#E0A6F8"/>
<stop offset="0.4187" stop-color="#E1A2F7"/>
<stop offset="0.5644" stop-color="#A396F6"/>
<stop offset="0.7202" stop-color="#9E83F3"/>
<stop offset="0.8819" stop-color="#9969F0"/>
<stop offset="1" stop-color="#9251ED"/>
</linearGradient>
<linearGradient id="paint2_linear_1751_2183" x1="308.391" y1="316.493" x2="353.283" y2="361.386" gradientUnits="userSpaceOnUse">
<stop stop-color="#FFCD50"/>
<stop offset="1" stop-color="#FF7C06"/>
</linearGradient>
<linearGradient id="paint3_linear_1751_2183" x1="330.835" y1="302.846" x2="330.835" y2="343.785" gradientUnits="userSpaceOnUse">
<stop offset="0.1484" stop-color="#9251ED"/>
<stop offset="0.3149" stop-color="#8442DD"/>
<stop offset="0.6744" stop-color="#6625BE"/>
<stop offset="0.877" stop-color="#5B1AB3"/>
</linearGradient>
<linearGradient id="paint4_linear_1751_2183" x1="223.948" y1="116.13" x2="147.956" y2="281.604" gradientUnits="userSpaceOnUse">
<stop stop-color="#FFCD50"/>
<stop offset="1" stop-color="#FF7C06"/>
</linearGradient>
<linearGradient id="paint5_linear_1751_2183" x1="159.621" y1="106.779" x2="134" y2="132.401" gradientUnits="userSpaceOnUse">
<stop offset="0.2061" stop-color="#6B36A2"/>
<stop offset="0.3244" stop-color="#5D2D88"/>
<stop offset="0.5309" stop-color="#471E5F"/>
<stop offset="0.7195" stop-color="#350E42"/>
<stop offset="0.8821" stop-color="#2A0430"/>
<stop offset="1" stop-color="#27002A"/>
</linearGradient>
<linearGradient id="paint6_linear_1751_2183" x1="160.164" y1="107.322" x2="138.015" y2="129.471" gradientUnits="userSpaceOnUse">
<stop offset="0.2061" stop-color="#6B36A2"/>
<stop offset="0.2598" stop-color="#663398"/>
<stop offset="0.6078" stop-color="#451D5D"/>
<stop offset="0.8643" stop-color="#300838"/>
<stop offset="1" stop-color="#27002A"/>
</linearGradient>
</defs>
</svg>
