<svg width="32" height="33" viewBox="0 0 32 33" fill="none" xmlns="http://www.w3.org/2000/svg">
<path d="M0 22.312C2.68608 26.2674 6.10343 29.6853 10.0586 32.3716H6.24219C3.93918 30.5266 1.84496 28.4324 0 26.1294V22.312ZM0 11.6821C3.27804 21.4029 10.9678 29.0934 20.6885 32.3716H14.9307C8.55754 29.0394 3.3323 23.814 0 17.4409V11.6821ZM3.05371 1.15088C3.05408 16.7069 15.6647 29.3185 31.2207 29.3188C31.404 29.3188 31.5871 29.3145 31.7695 29.311V31.5806C31.587 31.5838 31.404 31.5884 31.2207 31.5884L30.4355 31.5776C13.9891 31.1609 0.784544 17.6977 0.78418 1.15088C0.784182 0.967687 0.78779 0.784473 0.791016 0.602051H3.06152C3.05804 0.784445 3.05371 0.967651 3.05371 1.15088ZM7.82812 1.1499C7.82836 14.0692 18.3015 24.5431 31.2207 24.5435C31.4041 24.5435 31.5872 24.5398 31.7695 24.5356V26.8052C31.5871 26.809 31.404 26.813 31.2207 26.813L30.5586 26.8042C16.6921 26.4526 5.55882 15.1011 5.55859 1.1499C5.5586 0.96697 5.56162 0.784071 5.56543 0.602051H7.83496C7.83078 0.784021 7.82813 0.966928 7.82812 1.1499ZM12.6113 0.602051C12.6061 0.783889 12.6025 0.966793 12.6025 1.1499C12.6028 11.4322 20.9385 19.7685 31.2207 19.769C31.4042 19.769 31.5873 19.7646 31.7695 19.7593V22.0308C31.5872 22.0355 31.4041 22.0386 31.2207 22.0386L30.6816 22.0317C19.3953 21.7453 10.3332 12.5053 10.333 1.1499C10.333 0.966873 10.3352 0.783951 10.3398 0.602051H12.6113ZM17.3896 0.602051C17.3826 0.783671 17.377 0.966551 17.377 1.1499C17.3772 8.79548 23.5752 14.9942 31.2207 14.9946C31.4044 14.9946 31.5875 14.989 31.7695 14.9819V17.2524C31.5874 17.2585 31.4043 17.2642 31.2207 17.2642L30.8047 17.2583C22.0982 17.0372 15.1077 9.90965 15.1074 1.1499C15.1074 0.966684 15.1121 0.783793 15.1182 0.602051H17.3896ZM22.1699 0.602051C22.1591 0.783165 22.1524 0.96608 22.1523 1.1499C22.1526 6.15872 26.2129 10.2199 31.2217 10.2202C31.4056 10.2202 31.5883 10.2115 31.7695 10.2007V12.4751C31.5881 12.4837 31.4053 12.4897 31.2217 12.4897L30.6387 12.4751C24.6475 12.1714 19.883 7.21646 19.8828 1.1499C19.8828 0.966372 19.8878 0.783447 19.8965 0.602051H22.1699ZM25.7598 0.602051C25.7419 0.782426 25.7324 0.965797 25.7324 1.15088C25.7329 4.1819 28.1906 6.63989 31.2217 6.64014C31.4065 6.64012 31.5894 6.62968 31.7695 6.61182V8.88623C31.5886 8.89886 31.4059 8.90868 31.2217 8.90869L30.8223 8.89893C26.8553 8.69773 23.6738 5.5163 23.4727 1.54932L23.4629 1.15088C23.4629 0.966457 23.4717 0.783256 23.4844 0.602051H25.7598ZM29.7568 0.602051C29.693 0.772587 29.6563 0.957096 29.6562 1.1499C29.6565 2.01371 30.357 2.7148 31.2207 2.71533C31.414 2.71533 31.5986 2.67787 31.7695 2.61377V4.94482C31.5903 4.97051 31.407 4.98486 31.2207 4.98486L31.0234 4.979C28.9981 4.87584 27.3869 3.2008 27.3867 1.1499C27.3867 0.963998 27.4012 0.780885 27.4268 0.602051H29.7568Z" fill="#41DF82"/>
</svg>
