<svg width="32" height="33" viewBox="0 0 32 33" fill="none" xmlns="http://www.w3.org/2000/svg">
<path d="M31.7695 32.2559H0V0.487305H31.7695V32.2559ZM13.7393 7.05957C13.1598 7.05981 12.6897 7.52991 12.6895 8.10938C12.6895 8.68899 13.1597 9.15894 13.7393 9.15918C13.8492 9.15913 13.956 9.14176 14.0557 9.11035L16.0986 15.5791C15.8157 15.6684 15.5547 15.807 15.3223 15.9805L9.4873 12.9248C9.52109 12.7246 9.54004 12.5184 9.54004 12.3086C9.53967 10.2799 7.89496 8.63526 5.86621 8.63477C3.83704 8.63477 2.19177 10.2796 2.19141 12.3086C2.19141 14.3379 3.83681 15.9834 5.86621 15.9834C7.27993 15.9831 8.50589 15.1834 9.12012 14.0127L14.5645 16.8652C14.3735 17.2291 14.2647 17.6436 14.2646 18.083C14.2647 18.6601 14.4538 19.1918 14.7695 19.625L13.0518 22.8145C11.9686 22.8977 11.1156 23.8019 11.1152 24.9062C11.1152 26.0658 12.0552 27.0059 13.2148 27.0059C14.3743 27.0056 15.3145 26.0657 15.3145 24.9062C15.3142 24.1071 14.8673 23.4122 14.21 23.0576L15.6445 20.3936C16.0149 20.5935 16.4392 20.707 16.8896 20.707C17.5641 20.7069 18.1768 20.4494 18.6416 20.0312L24.3721 22.3906C24.616 22.9445 25.1693 23.3311 25.8135 23.3311C26.683 23.3308 27.3886 22.6263 27.3887 21.7568C27.3885 20.8875 26.6829 20.1819 25.8135 20.1816C25.1562 20.1816 24.5924 20.5851 24.3564 21.1572L19.3154 19.0811C19.4422 18.7733 19.5136 18.4364 19.5137 18.083C19.5137 17.9731 19.5053 17.8642 19.4922 17.7578L23.9326 14.9033C24.0314 14.9228 24.1338 14.9336 24.2383 14.9336C25.1078 14.9334 25.8135 14.2279 25.8135 13.3584C25.8131 12.4892 25.1076 11.7844 24.2383 11.7842C23.3689 11.7843 22.6644 12.4891 22.6641 13.3584C22.6641 13.6718 22.7562 13.9636 22.9141 14.209L19.0947 16.6641C18.6911 16.038 18.0299 15.5963 17.2598 15.4873L14.8223 7.76758L14.7402 7.79297C14.6059 7.36815 14.2085 7.05977 13.7393 7.05957Z" fill="white"/>
</svg>
