<svg xmlns="http://www.w3.org/2000/svg" xmlns:xlink="http://www.w3.org/1999/xlink" viewBox="0 0 1080 1080"><defs><style>.cls-1,.cls-10,.cls-11,.cls-12,.cls-13,.cls-14,.cls-15,.cls-16,.cls-17,.cls-18,.cls-19,.cls-20,.cls-21,.cls-22,.cls-23,.cls-24,.cls-25,.cls-26,.cls-27,.cls-28,.cls-29,.cls-30,.cls-31,.cls-32,.cls-33,.cls-34,.cls-35,.cls-36,.cls-37,.cls-8,.cls-9{fill:none;}.cls-2{isolation:isolate;}.cls-3{clip-path:url(#clip-path);}.cls-4{clip-path:url(#clip-path-2);}.cls-5{opacity:0.7;mix-blend-mode:screen;}.cls-6{fill:url(#linear-gradient);}.cls-7{fill:url(#linear-gradient-2);}.cls-10,.cls-11,.cls-12,.cls-13,.cls-14,.cls-15,.cls-16,.cls-17,.cls-18,.cls-19,.cls-20,.cls-21,.cls-22,.cls-23,.cls-24,.cls-25,.cls-26,.cls-27,.cls-28,.cls-29,.cls-30,.cls-31,.cls-32,.cls-33,.cls-34,.cls-35,.cls-36,.cls-37,.cls-8,.cls-9{stroke:#919191;stroke-linecap:round;stroke-linejoin:round;}.cls-8{stroke-width:3.99px;}.cls-9{stroke-width:3.97px;}.cls-10{stroke-width:3.96px;}.cls-11{stroke-width:3.94px;}.cls-12{stroke-width:4.35px;}.cls-13{stroke-width:4.33px;}.cls-14{stroke-width:4.3px;}.cls-15{stroke-width:4.28px;}.cls-16{stroke-width:4.26px;}.cls-17{stroke-width:4.24px;}.cls-18{stroke-width:4.22px;}.cls-19{stroke-width:4.2px;}.cls-20{stroke-width:4.18px;}.cls-21{stroke-width:4.16px;}.cls-22{stroke-width:4.77px;}.cls-23{stroke-width:4.73px;}.cls-24{stroke-width:4.69px;}.cls-25{stroke-width:4.67px;}.cls-26{stroke-width:4.64px;}.cls-27{stroke-width:4.6px;}.cls-28{stroke-width:4.58px;}.cls-29{stroke-width:4.56px;}.cls-30{stroke-width:4.52px;}.cls-31{stroke-width:4.5px;}.cls-32{stroke-width:4.49px;}.cls-33{stroke-width:4.47px;}.cls-34{stroke-width:4.45px;}.cls-35{stroke-width:4.43px;}.cls-36{stroke-width:4.41px;}.cls-37{stroke-width:4.39px;}.cls-38{fill:#fff;}</style><clipPath id="clip-path"><rect class="cls-1" x="-1147.25" y="-1256.49" width="1086.83" height="1086.83"/></clipPath><clipPath id="clip-path-2"><rect class="cls-1" x="-1186.45" y="-1281.06" width="1993.29" height="1119.91"/></clipPath><linearGradient id="linear-gradient" x1="-414.42" y1="-855.43" x2="170.91" y2="476.11" gradientUnits="userSpaceOnUse"><stop offset="0" stop-color="#0ed0f8"/><stop offset="0.19" stop-color="#149cd2" stop-opacity="0.75"/><stop offset="0.41" stop-color="#1b65aa" stop-opacity="0.48"/><stop offset="0.6" stop-color="#20398b" stop-opacity="0.28"/><stop offset="0.77" stop-color="#241a74" stop-opacity="0.13"/><stop offset="0.91" stop-color="#260766" stop-opacity="0.03"/><stop offset="1" stop-color="#270061" stop-opacity="0"/></linearGradient><linearGradient id="linear-gradient-2" x1="-710.49" y1="-711.3" x2="-124.79" y2="621.06" xlink:href="#linear-gradient"/></defs><title>CREA Summit 2025_logo</title><g class="cls-2"><g id="Camada_1" data-name="Camada 1"><g id="BG"><g class="cls-3"><g id="Elementos"><g class="cls-4"><g class="cls-5"><path class="cls-6" d="M754.45-355.1c-84.77-31.4-174.85-48.59-265-53.45a1198.28,1198.28,0,0,0-207,7.17C113.53-381.12-37.38-285.09-210.1-285.09-414.47-285.09-601.39-427-784-505.25c-156.54-69.57-326.13-65.22-474,26.1l-13,543.54H1107.52V-261.74c-106.16,43.93-205-27.81-297.84-70.5Q782.52-344.72,754.45-355.1Z"/></g><g class="cls-5"><path class="cls-7" d="M459.6-212.45A950,950,0,0,0,71.93-265.78c-126.25,9-245.54,50.28-365.27,88.33-67.69,21.51-141,37.32-212.46,37.32-204.37,0-354.66-173.95-537.29-252.22-156.54-69.57-362.76-33.17-510.6,58.15l-13,543.54H811.81V-116.78C685.71-64.6,568.3-173.31,459.6-212.45Z"/></g><line class="cls-8" x1="163.14" y1="-35.06" x2="153.97" y2="1.07"/><line class="cls-8" x1="136.19" y1="-30.43" x2="125.52" y2="5.69"/><line class="cls-9" x1="109.43" y1="-25.84" x2="97.19" y2="10.24"/><line class="cls-9" x1="82.46" y1="-21.44" x2="68.69" y2="14.62"/><line class="cls-10" x1="55.52" y1="-17.1" x2="40.17" y2="18.94"/><line class="cls-10" x1="28.58" y1="-12.85" x2="11.67" y2="23.18"/><line class="cls-11" x1="1.41" y1="-8.77" x2="-17.06" y2="27.27"/><line class="cls-12" x1="382.15" y1="-41.06" x2="387.39" y2="-0.78"/><line class="cls-13" x1="353.38" y1="-35.19" x2="356.94" y2="5.03"/><line class="cls-14" x1="324.75" y1="-29.51" x2="326.62" y2="10.65"/><line class="cls-15" x1="296.19" y1="-24.01" x2="296.39" y2="16.08"/><line class="cls-16" x1="267.69" y1="-18.69" x2="266.22" y2="21.35"/><line class="cls-16" x1="239.32" y1="-13.5" x2="236.16" y2="26.5"/><line class="cls-17" x1="211.02" y1="-8.42" x2="206.16" y2="31.51"/><line class="cls-18" x1="182.5" y1="-3.61" x2="176" y2="36.32"/><line class="cls-19" x1="153.97" y1="1.07" x2="145.8" y2="40.98"/><line class="cls-19" x1="125.52" y1="5.69" x2="115.68" y2="45.57"/><line class="cls-20" x1="97.19" y1="10.24" x2="85.64" y2="50.11"/><line class="cls-20" x1="68.69" y1="14.62" x2="55.45" y2="54.51"/><line class="cls-21" x1="40.17" y1="18.94" x2="25.23" y2="58.81"/><line class="cls-21" x1="11.67" y1="23.18" x2="-5.02" y2="63.06"/><line class="cls-22" x1="573.51" y1="-41.37" x2="593.27" y2="4.36"/><line class="cls-23" x1="541.74" y1="-33.95" x2="559.4" y2="11.56"/><line class="cls-24" x1="510.33" y1="-26.79" x2="525.92" y2="18.5"/><line class="cls-25" x1="479.24" y1="-19.92" x2="492.81" y2="25.18"/><line class="cls-26" x1="448.38" y1="-13.32" x2="459.98" y2="31.63"/><line class="cls-27" x1="417.79" y1="-6.93" x2="427.44" y2="37.87"/><line class="cls-28" x1="387.39" y1="-0.78" x2="395.1" y2="43.9"/><line class="cls-29" x1="356.94" y1="5.03" x2="362.8" y2="49.63"/><line class="cls-30" x1="326.62" y1="10.65" x2="330.65" y2="55.19"/><line class="cls-31" x1="296.39" y1="16.08" x2="298.59" y2="60.56"/><line class="cls-32" x1="266.22" y1="21.35" x2="266.58" y2="65.78"/><line class="cls-33" x1="236.16" y1="26.5" x2="234.73" y2="70.88"/><line class="cls-33" x1="206.16" y1="31.51" x2="202.89" y2="75.86"/><line class="cls-34" x1="176" y1="36.32" x2="170.95" y2="80.65"/><line class="cls-35" x1="145.8" y1="40.98" x2="138.97" y2="85.34"/><line class="cls-35" x1="115.68" y1="45.57" x2="107.02" y2="89.92"/><line class="cls-36" x1="85.64" y1="50.11" x2="75.12" y2="94.45"/><line class="cls-37" x1="55.45" y1="54.51" x2="43.11" y2="98.86"/><line class="cls-37" x1="25.23" y1="58.81" x2="11.05" y2="103.19"/></g></g></g></g><path class="cls-38" d="M236.17,710.24a25.71,25.71,0,0,1-7.87,9.68,35.65,35.65,0,0,1-11.85,5.7,53.79,53.79,0,0,1-14.57,1.9,68,68,0,0,1-41.63-14.66L172,694.76a65.28,65.28,0,0,0,15.84,8.69,42.86,42.86,0,0,0,14.75,2.9c4,0,6.91-.67,8.78-2a6.15,6.15,0,0,0,2.8-5.25v-.36a5.22,5.22,0,0,0-1.63-3.81,13.77,13.77,0,0,0-4.43-2.8,65.31,65.31,0,0,0-6.42-2.26c-2.42-.73-4.95-1.51-7.61-2.36A104.1,104.1,0,0,1,183.87,684a36.68,36.68,0,0,1-9.32-5.43,26.59,26.59,0,0,1-6.79-8.24,25,25,0,0,1-2.62-11.94V658a28.49,28.49,0,0,1,10.4-22.8,32.45,32.45,0,0,1,11.23-6,46.39,46.39,0,0,1,13.84-2,62.24,62.24,0,0,1,18.73,3,69.23,69.23,0,0,1,17.47,8.24l-10.5,19a86.21,86.21,0,0,0-14.12-6.6,36.89,36.89,0,0,0-12.12-2.45c-3.38,0-5.92.64-7.6,1.9a5.76,5.76,0,0,0-2.54,4.8v.36a4.71,4.71,0,0,0,1.63,3.53,18.16,18.16,0,0,0,4.34,2.9,57.86,57.86,0,0,0,6.25,2.62q3.53,1.28,7.51,2.53,5.07,1.63,10.31,3.89a42.73,42.73,0,0,1,9.42,5.52,27.51,27.51,0,0,1,6.87,8,22.47,22.47,0,0,1,2.72,11.4v.36A32.33,32.33,0,0,1,236.17,710.24Z"/><path class="cls-38" d="M319.33,725.71V711.84a59.85,59.85,0,0,1-5.16,5.93,36.26,36.26,0,0,1-6.24,5,31.35,31.35,0,0,1-7.6,3.47,32.46,32.46,0,0,1-9.41,1.27q-15.75,0-24.34-9.59T258,691.51v-62.8h27.51v54q0,9.75,4.34,14.71t12.31,5q8,0,12.58-5t4.61-14.71v-54h27.51v97Z"/><path class="cls-38" d="M492,725.71v-54q0-9.75-4.17-14.71c-2.77-3.31-6.76-5-11.94-5s-9.26,1.66-12.22,5-4.43,8.21-4.43,14.71v54H431.72v-54q0-9.75-4.16-14.71t-11.95-5q-7.78,0-12.21,5T399,671.73v54H371.45v-97H399v13.86a59.75,59.75,0,0,1,5.16-5.92,36.26,36.26,0,0,1,6.24-5,30.62,30.62,0,0,1,7.69-3.47,33.11,33.11,0,0,1,9.51-1.27,32.6,32.6,0,0,1,16.56,4,27,27,0,0,1,10.76,11.48A44.25,44.25,0,0,1,469,630.82a38.81,38.81,0,0,1,17.74-3.92q15.38,0,24.07,9t8.68,26.61v63.16Z"/><path class="cls-38" d="M663.92,725.71v-54q0-9.75-4.17-14.71c-2.77-3.31-6.76-5-11.94-5s-9.26,1.66-12.22,5-4.43,8.21-4.43,14.71v54H603.65v-54q0-9.75-4.16-14.71t-12-5q-7.78,0-12.21,5t-4.44,14.71v54H543.38v-97h27.51v13.86a59.75,59.75,0,0,1,5.16-5.92,36.26,36.26,0,0,1,6.24-5,30.62,30.62,0,0,1,7.69-3.47,33.11,33.11,0,0,1,9.51-1.27,32.6,32.6,0,0,1,16.56,4,27,27,0,0,1,10.76,11.48,44.25,44.25,0,0,1,14.12-11.57,38.81,38.81,0,0,1,17.74-3.92q15.38,0,24.07,9t8.68,26.61v63.16Z"/><path class="cls-38" d="M715.86,618V593.6h28.95V618Zm.72,107.68v-97h27.51v97Z"/><path class="cls-38" d="M814.85,725.8a43,43,0,0,1-12.12,1.54,45,45,0,0,1-11.5-1.36,20.48,20.48,0,0,1-8.87-4.79,23.11,23.11,0,0,1-5.79-9,40.2,40.2,0,0,1-2.08-14v-46H762.91V628.71h11.58v-24.8H802v24.8h22.8v23.52H802v41.45q0,9.41,8.87,9.41a28,28,0,0,0,13.57-3.44v22.08A42.45,42.45,0,0,1,814.85,725.8Z"/><path class="cls-38" d="M971.27,765.55H111.57v-210h859.7Zm-852.44-7.26H964V562.82H118.83Z"/><path class="cls-38" d="M267.52,318.08c50.63,0,76.66,28.89,76.66,28.89L321,384.73s-22.88-20.89-51.2-20.89c-39.19,0-57.78,28.89-57.78,58.36,0,30.32,20,61.5,57.78,61.5,30.89,0,54.35-25.17,54.35-25.17l25.74,36.61S321,529.46,267.52,529.46c-64.08,0-107.27-45.48-107.27-106.12C160.25,363.84,206,318.08,267.52,318.08Z"/><path class="cls-38" d="M380.22,321.51h71.22c20.88,0,30.89,1.43,39.76,4.86,23.17,8.87,37.76,29.75,37.76,59.5,0,21.74-10.3,45.48-30.61,55.78v.57a118.07,118.07,0,0,1,7.73,12.3L545.84,526H490.06L453.73,457.1H430.27V526h-50ZM452,414.19c16,0,26-8.87,26-25.17,0-15.45-5.72-24.6-30.89-24.6H430.27v49.77Z"/><path class="cls-38" d="M575.3,321.51H703.45v42.91H625.36V401.6h62.36v42.91H625.36v38.62h82.09V526H575.3Z"/><path class="cls-38" d="M858.51,483.13H794.72L782.42,526H730.93l69.51-204.52h52.63L922.58,526H871.1Zm-32-115s-4.57,22.31-8.29,35.18l-11.73,39.76h40.33l-11.44-39.76c-3.72-12.87-8.3-35.18-8.3-35.18Z"/><path class="cls-38" d="M871.27,697.39c0-12.39,14.49-14.59,14.49-19.42a3.31,3.31,0,0,0-3.61-3.33c-3.19,0-5,3.56-5,3.56l-6.1-4.08a12.94,12.94,0,0,1,11.82-7.22c5.49,0,11.45,3.14,11.45,10.27,0,10.46-13.51,12.48-13.75,16.79h14.26v7H871.64A21,21,0,0,1,871.27,697.39Z"/><path class="cls-38" d="M921.72,675.15H910l-.49,4c.6,0,1.1,0,1.62,0a14.24,14.24,0,0,1,8.48,2.64c2.29,1.84,3.47,4.54,3.47,8.2,0,6.26-5.06,12-14.21,12a21.6,21.6,0,0,1-8.71-1.68l1.4-6.78a17.64,17.64,0,0,0,6.78,1.44c2.94,0,5.8-1.29,5.8-4.38,0-3.4-2.88-5-8.6-5a26.76,26.76,0,0,0-3.77.24l2-18h17.9Z"/><path class="cls-38" d="M859.87,657.18c0-12.38,14.49-14.59,14.49-19.42a3.31,3.31,0,0,0-3.61-3.33c-3.19,0-5,3.57-5,3.57l-6.1-4.08a12.94,12.94,0,0,1,11.82-7.23C877,626.69,883,629.83,883,637c0,10.46-13.51,12.48-13.74,16.8h14.25v7H860.25A20,20,0,0,1,859.87,657.18Z"/><path class="cls-38" d="M888.2,644c0-9.61,3.1-17.26,12.62-17.26s12.62,7.65,12.62,17.26-3.1,17.4-12.62,17.4S888.2,653.57,888.2,644ZM905,644c0-5.44-.94-9.75-4.17-9.75s-4.18,4.31-4.18,9.75.94,9.9,4.18,9.9S905,649.44,905,644Z"/></g></g></svg>