<svg width="569" height="296" viewBox="0 0 569 296" fill="none" xmlns="http://www.w3.org/2000/svg">
<path fill-rule="evenodd" clip-rule="evenodd" d="M103.793 0.224854C137.259 0.224854 154.465 19.321 154.465 19.321L139.143 44.2801C139.143 44.2801 124.019 30.472 105.3 30.472C79.3955 30.472 67.1076 49.5681 67.1076 69.0476C67.1076 89.0889 80.3275 109.699 105.3 109.699C125.718 109.699 141.225 93.0615 141.225 93.0615L158.239 117.261C158.239 117.261 139.143 139.946 103.793 139.946C61.4363 139.946 32.8879 109.884 32.8879 69.8011C32.8879 30.472 63.1284 0.224854 103.793 0.224854ZM0.710938 296H568.968V157.191H0.710938V296ZM564.162 291.201H5.50976V161.997H564.162V291.201ZM400.143 182.342V198.47H419.279V182.342H400.143ZM400.619 205.53V269.646H418.803V205.53H400.619ZM252.173 233.972V269.666L270.344 269.639V227.891C270.348 220.131 268.436 214.268 264.606 210.302C260.777 206.336 255.473 204.353 248.696 204.353C244.637 204.277 240.619 205.165 236.97 206.944C233.369 208.824 230.2 211.433 227.663 214.605C226.098 211.426 223.622 208.784 220.551 207.017C217.201 205.181 213.423 204.268 209.605 204.373C207.48 204.346 205.362 204.629 203.319 205.212C201.527 205.739 199.816 206.511 198.236 207.506C196.743 208.452 195.36 209.561 194.111 210.811C192.89 212.039 191.75 213.346 190.7 214.724V205.563H172.49V269.679H190.7V233.985C190.687 229.698 191.657 226.452 193.609 224.249C195.561 222.046 198.251 220.944 201.68 220.944C205.112 220.962 207.745 222.063 209.578 224.249C211.412 226.435 212.328 229.676 212.328 233.972V269.666H230.519V233.972C230.519 229.676 231.49 226.457 233.447 224.249C235.403 222.041 238.1 220.944 241.524 220.944C244.948 220.944 247.586 222.061 249.417 224.249C251.254 226.435 252.173 229.676 252.173 233.972ZM83.0706 259.44C81.8882 261.968 80.1016 264.165 77.8686 265.839C75.5139 267.569 72.8578 268.847 70.0358 269.606C66.8981 270.464 63.6577 270.886 60.4051 270.862C50.4105 270.782 40.7278 267.372 32.8879 261.172L40.6546 249.208C43.8616 251.599 47.3853 253.532 51.1248 254.952C54.2363 256.161 57.537 256.809 60.8744 256.869C63.5184 256.869 65.4419 256.426 66.678 255.547C67.2549 255.173 67.7273 254.658 68.0509 254.051C68.3746 253.444 68.539 252.765 68.5287 252.077V251.839C68.5306 251.368 68.436 250.901 68.2507 250.468C68.0654 250.035 67.7933 249.645 67.4513 249.321C66.6027 248.522 65.6087 247.894 64.5231 247.47C63.1355 246.898 61.7191 246.4 60.2795 245.976C58.6799 245.493 57.0076 244.978 55.2494 244.416C52.9612 243.76 50.7086 242.985 48.5006 242.096C46.2815 241.21 44.2056 240 42.3402 238.507C40.4912 237.013 38.9644 235.16 37.852 233.06C36.6305 230.613 36.0355 227.901 36.1202 225.168V224.91C36.0415 222.04 36.6199 219.19 37.8114 216.578C39.0028 213.966 40.7757 211.661 42.9945 209.839C45.1827 208.04 47.7056 206.692 50.4175 205.873C53.3826 204.973 56.467 204.527 59.5657 204.551C63.7696 204.576 67.9448 205.245 71.9461 206.534C76.0309 207.801 79.9179 209.635 83.4937 211.981L76.5532 224.54C73.5802 222.807 70.4564 221.347 67.22 220.177C64.6597 219.191 61.9512 218.643 59.2087 218.558C56.9746 218.558 55.2956 218.981 54.1852 219.814C53.666 220.164 53.2412 220.636 52.9483 221.19C52.6555 221.743 52.5036 222.36 52.5062 222.987V223.225C52.5094 223.668 52.6071 224.105 52.793 224.508C52.9788 224.91 53.2483 225.268 53.5837 225.558C54.4426 226.332 55.4088 226.977 56.4524 227.475C57.7944 228.132 59.1739 228.71 60.5836 229.207C62.1391 229.771 63.7938 230.328 65.5477 230.879C67.7818 231.597 70.0534 232.454 72.3625 233.45C74.5855 234.395 76.6781 235.621 78.5891 237.099C80.4296 238.552 81.9716 240.348 83.1301 242.387C84.3854 244.695 85.0059 247.295 84.928 249.922V250.16C85.0103 253.353 84.3756 256.525 83.0706 259.44ZM138.039 269.666V260.498C136.989 261.878 135.85 263.187 134.628 264.418C133.379 265.668 131.996 266.776 130.504 267.723C128.939 268.708 127.249 269.479 125.48 270.016C123.459 270.599 121.363 270.882 119.26 270.856C112.32 270.856 106.957 268.743 103.171 264.517C99.3862 260.291 97.4957 254.472 97.5001 247.06V205.549H115.684V241.243C115.684 245.54 116.64 248.781 118.553 250.966C120.465 253.152 123.178 254.254 126.69 254.271C130.215 254.271 132.987 253.17 135.005 250.966C137.023 248.763 138.039 245.522 138.052 241.243V205.549H156.236V269.666H138.039ZM365.811 269.666V233.972C365.811 229.676 364.892 226.435 363.055 224.249C361.224 222.061 358.586 220.944 355.162 220.944C351.738 220.944 349.041 222.041 347.085 224.249C345.128 226.457 344.157 229.676 344.157 233.972V269.666H325.973V233.972C325.973 229.676 325.056 226.435 323.223 224.249C321.39 222.063 318.746 220.962 315.291 220.944C311.863 220.944 309.172 222.046 307.22 224.249C305.268 226.452 304.29 229.693 304.286 233.972V269.666H286.135V205.55H304.319V214.711C305.368 213.333 306.508 212.026 307.729 210.798C308.978 209.547 310.361 208.439 311.854 207.493C313.434 206.497 315.145 205.726 316.937 205.199C318.98 204.616 321.098 204.333 323.223 204.36C327.042 204.255 330.819 205.168 334.169 207.004C337.241 208.771 339.717 211.413 341.281 214.592C343.827 211.422 347.006 208.817 350.615 206.944C354.263 205.165 358.282 204.277 362.341 204.353C369.118 204.353 374.421 206.336 378.251 210.302C382.08 214.268 383.993 220.131 383.988 227.891V269.639L365.811 269.666ZM465.575 269.725C462.967 270.444 460.269 270.787 457.564 270.743C455.002 270.772 452.447 270.47 449.962 269.844C447.775 269.294 445.759 268.206 444.099 266.678C442.376 265.022 441.065 262.984 440.272 260.729C439.27 257.75 438.805 254.617 438.897 251.475V221.07H431.243V205.549H438.897V189.157H457.081V205.549H472.152V221.096H457.081V248.494C457.081 252.641 459.035 254.714 462.944 254.714C466.078 254.728 469.165 253.946 471.914 252.44V267.035C469.919 268.189 467.79 269.092 465.575 269.725ZM225.363 2.4921H178.287L178.32 137.659H211.369V92.1163H226.876L250.89 137.659H287.761L261.479 90.4109C259.945 87.5985 258.238 84.8833 256.37 82.2807V81.9039C269.795 75.0957 276.603 59.4037 276.603 45.0337C276.603 25.3691 266.959 11.5675 251.644 5.70452C245.781 3.43731 239.164 2.4921 225.363 2.4921ZM242.919 47.1158C242.919 57.89 236.309 63.753 225.733 63.753H211.369V30.8554H222.501C239.138 30.8554 242.919 36.9034 242.919 47.1158ZM307.233 2.4921H391.94V30.8554H340.323V55.4311H381.542V83.7944H340.323V109.322H394.584V137.659H307.233V2.4921ZM452.269 109.322H494.434L502.756 137.659H536.784L490.838 2.47225H456.05L410.104 137.659H444.139L452.269 109.322ZM467.802 56.5614C470.261 48.0544 473.282 33.3076 473.282 33.3076H473.659C473.659 33.3076 476.686 48.0544 479.145 56.5614L486.707 82.8425H460.049L467.802 56.5614ZM502.868 250.947C502.868 245.905 506.498 243.416 509.288 241.502C511.031 240.308 512.446 239.337 512.446 238.11C512.449 237.804 512.388 237.501 512.267 237.22C512.145 236.939 511.966 236.687 511.741 236.48C511.517 236.272 511.251 236.114 510.961 236.016C510.671 235.918 510.364 235.881 510.06 235.909C507.951 235.909 506.755 238.262 506.755 238.262L502.723 235.565C503.439 234.111 504.553 232.891 505.937 232.046C507.32 231.201 508.915 230.766 510.536 230.793C514.164 230.793 518.104 232.868 518.104 237.581C518.104 241.822 514.745 243.964 512.11 245.644C510.449 246.703 509.077 247.578 509.015 248.679H518.441V253.306H503.113C502.964 252.528 502.882 251.739 502.868 250.947ZM528.469 236.246H536.215L536.182 231.408H524.351L523.029 243.306C523.854 243.194 524.687 243.141 525.52 243.147C529.301 243.147 531.205 244.205 531.205 246.452C531.205 248.494 529.315 249.347 527.371 249.347C525.829 249.329 524.306 249.006 522.89 248.395L521.964 252.877C523.786 253.641 525.746 254.019 527.722 253.987C533.77 253.987 537.114 250.193 537.114 246.055C537.114 243.636 536.334 241.851 534.821 240.635C533.186 239.471 531.222 238.859 529.215 238.89H528.145L528.469 236.246ZM495.333 224.368C495.333 219.331 498.962 216.841 501.752 214.926C503.495 213.73 504.911 212.759 504.911 211.532C504.914 211.226 504.853 210.922 504.732 210.642C504.61 210.361 504.431 210.109 504.206 209.901C503.982 209.694 503.716 209.536 503.426 209.437C503.136 209.339 502.829 209.303 502.525 209.33C500.416 209.33 499.22 211.69 499.22 211.69L495.188 208.993C495.903 207.538 497.017 206.316 498.401 205.47C499.784 204.624 501.379 204.188 503.001 204.214C506.656 204.214 510.622 206.29 510.622 211.029C510.622 215.267 507.267 217.409 504.635 219.089C502.973 220.151 501.599 221.028 501.54 222.134H510.959V226.761H495.584C495.428 225.973 495.344 225.172 495.333 224.368ZM522.401 204.247C516.108 204.247 514.059 209.304 514.059 215.656C514.059 221.982 516.108 227.157 522.401 227.157C528.693 227.157 530.742 222.008 530.742 215.656C530.742 209.304 528.693 204.247 522.401 204.247ZM522.407 209.211C524.542 209.211 525.164 212.06 525.164 215.656C525.164 219.252 524.549 222.2 522.407 222.2C520.266 222.2 519.644 219.252 519.644 215.656C519.644 212.06 520.272 209.211 522.407 209.211Z" fill="url(#paint0_radial_2241_15723)"/>
<path fill-rule="evenodd" clip-rule="evenodd" d="M103.793 0.224854C137.259 0.224854 154.465 19.321 154.465 19.321L139.143 44.2801C139.143 44.2801 124.019 30.472 105.3 30.472C79.3955 30.472 67.1076 49.5681 67.1076 69.0476C67.1076 89.0889 80.3275 109.699 105.3 109.699C125.718 109.699 141.225 93.0615 141.225 93.0615L158.239 117.261C158.239 117.261 139.143 139.946 103.793 139.946C61.4363 139.946 32.8879 109.884 32.8879 69.8011C32.8879 30.472 63.1284 0.224854 103.793 0.224854ZM0.710938 296H568.968V157.191H0.710938V296ZM564.162 291.201H5.50976V161.997H564.162V291.201ZM400.143 182.342V198.47H419.279V182.342H400.143ZM400.619 205.53V269.646H418.803V205.53H400.619ZM252.173 233.972V269.666L270.344 269.639V227.891C270.348 220.131 268.436 214.268 264.606 210.302C260.777 206.336 255.473 204.353 248.696 204.353C244.637 204.277 240.619 205.165 236.97 206.944C233.369 208.824 230.2 211.433 227.663 214.605C226.098 211.426 223.622 208.784 220.551 207.017C217.201 205.181 213.423 204.268 209.605 204.373C207.48 204.346 205.362 204.629 203.319 205.212C201.527 205.739 199.816 206.511 198.236 207.506C196.743 208.452 195.36 209.561 194.111 210.811C192.89 212.039 191.75 213.346 190.7 214.724V205.563H172.49V269.679H190.7V233.985C190.687 229.698 191.657 226.452 193.609 224.249C195.561 222.046 198.251 220.944 201.68 220.944C205.112 220.962 207.745 222.063 209.578 224.249C211.412 226.435 212.328 229.676 212.328 233.972V269.666H230.519V233.972C230.519 229.676 231.49 226.457 233.447 224.249C235.403 222.041 238.1 220.944 241.524 220.944C244.948 220.944 247.586 222.061 249.417 224.249C251.254 226.435 252.173 229.676 252.173 233.972ZM83.0706 259.44C81.8882 261.968 80.1016 264.165 77.8686 265.839C75.5139 267.569 72.8578 268.847 70.0358 269.606C66.8981 270.464 63.6577 270.886 60.4051 270.862C50.4105 270.782 40.7278 267.372 32.8879 261.172L40.6546 249.208C43.8616 251.599 47.3853 253.532 51.1248 254.952C54.2363 256.161 57.537 256.809 60.8744 256.869C63.5184 256.869 65.4419 256.426 66.678 255.547C67.2549 255.173 67.7273 254.658 68.0509 254.051C68.3746 253.444 68.539 252.765 68.5287 252.077V251.839C68.5306 251.368 68.436 250.901 68.2507 250.468C68.0654 250.035 67.7933 249.645 67.4513 249.321C66.6027 248.522 65.6087 247.894 64.5231 247.47C63.1355 246.898 61.7191 246.4 60.2795 245.976C58.6799 245.493 57.0076 244.978 55.2494 244.416C52.9612 243.76 50.7086 242.985 48.5006 242.096C46.2815 241.21 44.2056 240 42.3402 238.507C40.4912 237.013 38.9644 235.16 37.852 233.06C36.6305 230.613 36.0355 227.901 36.1202 225.168V224.91C36.0415 222.04 36.6199 219.19 37.8114 216.578C39.0028 213.966 40.7757 211.661 42.9945 209.839C45.1827 208.04 47.7056 206.692 50.4175 205.873C53.3826 204.973 56.467 204.527 59.5657 204.551C63.7696 204.576 67.9448 205.245 71.9461 206.534C76.0309 207.801 79.9179 209.635 83.4937 211.981L76.5532 224.54C73.5802 222.807 70.4564 221.347 67.22 220.177C64.6597 219.191 61.9512 218.643 59.2087 218.558C56.9746 218.558 55.2956 218.981 54.1852 219.814C53.666 220.164 53.2412 220.636 52.9483 221.19C52.6555 221.743 52.5036 222.36 52.5062 222.987V223.225C52.5094 223.668 52.6071 224.105 52.793 224.508C52.9788 224.91 53.2483 225.268 53.5837 225.558C54.4426 226.332 55.4088 226.977 56.4524 227.475C57.7944 228.132 59.1739 228.71 60.5836 229.207C62.1391 229.771 63.7938 230.328 65.5477 230.879C67.7818 231.597 70.0534 232.454 72.3625 233.45C74.5855 234.395 76.6781 235.621 78.5891 237.099C80.4296 238.552 81.9716 240.348 83.1301 242.387C84.3854 244.695 85.0059 247.295 84.928 249.922V250.16C85.0103 253.353 84.3756 256.525 83.0706 259.44ZM138.039 269.666V260.498C136.989 261.878 135.85 263.187 134.628 264.418C133.379 265.668 131.996 266.776 130.504 267.723C128.939 268.708 127.249 269.479 125.48 270.016C123.459 270.599 121.363 270.882 119.26 270.856C112.32 270.856 106.957 268.743 103.171 264.517C99.3862 260.291 97.4957 254.472 97.5001 247.06V205.549H115.684V241.243C115.684 245.54 116.64 248.781 118.553 250.966C120.465 253.152 123.178 254.254 126.69 254.271C130.215 254.271 132.987 253.17 135.005 250.966C137.023 248.763 138.039 245.522 138.052 241.243V205.549H156.236V269.666H138.039ZM365.811 269.666V233.972C365.811 229.676 364.892 226.435 363.055 224.249C361.224 222.061 358.586 220.944 355.162 220.944C351.738 220.944 349.041 222.041 347.085 224.249C345.128 226.457 344.157 229.676 344.157 233.972V269.666H325.973V233.972C325.973 229.676 325.056 226.435 323.223 224.249C321.39 222.063 318.746 220.962 315.291 220.944C311.863 220.944 309.172 222.046 307.22 224.249C305.268 226.452 304.29 229.693 304.286 233.972V269.666H286.135V205.55H304.319V214.711C305.368 213.333 306.508 212.026 307.729 210.798C308.978 209.547 310.361 208.439 311.854 207.493C313.434 206.497 315.145 205.726 316.937 205.199C318.98 204.616 321.098 204.333 323.223 204.36C327.042 204.255 330.819 205.168 334.169 207.004C337.241 208.771 339.717 211.413 341.281 214.592C343.827 211.422 347.006 208.817 350.615 206.944C354.263 205.165 358.282 204.277 362.341 204.353C369.118 204.353 374.421 206.336 378.251 210.302C382.08 214.268 383.993 220.131 383.988 227.891V269.639L365.811 269.666ZM465.575 269.725C462.967 270.444 460.269 270.787 457.564 270.743C455.002 270.772 452.447 270.47 449.962 269.844C447.775 269.294 445.759 268.206 444.099 266.678C442.376 265.022 441.065 262.984 440.272 260.729C439.27 257.75 438.805 254.617 438.897 251.475V221.07H431.243V205.549H438.897V189.157H457.081V205.549H472.152V221.096H457.081V248.494C457.081 252.641 459.035 254.714 462.944 254.714C466.078 254.728 469.165 253.946 471.914 252.44V267.035C469.919 268.189 467.79 269.092 465.575 269.725ZM225.363 2.4921H178.287L178.32 137.659H211.369V92.1163H226.876L250.89 137.659H287.761L261.479 90.4109C259.945 87.5985 258.238 84.8833 256.37 82.2807V81.9039C269.795 75.0957 276.603 59.4037 276.603 45.0337C276.603 25.3691 266.959 11.5675 251.644 5.70452C245.781 3.43731 239.164 2.4921 225.363 2.4921ZM242.919 47.1158C242.919 57.89 236.309 63.753 225.733 63.753H211.369V30.8554H222.501C239.138 30.8554 242.919 36.9034 242.919 47.1158ZM307.233 2.4921H391.94V30.8554H340.323V55.4311H381.542V83.7944H340.323V109.322H394.584V137.659H307.233V2.4921ZM452.269 109.322H494.434L502.756 137.659H536.784L490.838 2.47225H456.05L410.104 137.659H444.139L452.269 109.322ZM467.802 56.5614C470.261 48.0544 473.282 33.3076 473.282 33.3076H473.659C473.659 33.3076 476.686 48.0544 479.145 56.5614L486.707 82.8425H460.049L467.802 56.5614ZM502.868 250.947C502.868 245.905 506.498 243.416 509.288 241.502C511.031 240.308 512.446 239.337 512.446 238.11C512.449 237.804 512.388 237.501 512.267 237.22C512.145 236.939 511.966 236.687 511.741 236.48C511.517 236.272 511.251 236.114 510.961 236.016C510.671 235.918 510.364 235.881 510.06 235.909C507.951 235.909 506.755 238.262 506.755 238.262L502.723 235.565C503.439 234.111 504.553 232.891 505.937 232.046C507.32 231.201 508.915 230.766 510.536 230.793C514.164 230.793 518.104 232.868 518.104 237.581C518.104 241.822 514.745 243.964 512.11 245.644C510.449 246.703 509.077 247.578 509.015 248.679H518.441V253.306H503.113C502.964 252.528 502.882 251.739 502.868 250.947ZM528.469 236.246H536.215L536.182 231.408H524.351L523.029 243.306C523.854 243.194 524.687 243.141 525.52 243.147C529.301 243.147 531.205 244.205 531.205 246.452C531.205 248.494 529.315 249.347 527.371 249.347C525.829 249.329 524.306 249.006 522.89 248.395L521.964 252.877C523.786 253.641 525.746 254.019 527.722 253.987C533.77 253.987 537.114 250.193 537.114 246.055C537.114 243.636 536.334 241.851 534.821 240.635C533.186 239.471 531.222 238.859 529.215 238.89H528.145L528.469 236.246ZM495.333 224.368C495.333 219.331 498.962 216.841 501.752 214.926C503.495 213.73 504.911 212.759 504.911 211.532C504.914 211.226 504.853 210.922 504.732 210.642C504.61 210.361 504.431 210.109 504.206 209.901C503.982 209.694 503.716 209.536 503.426 209.437C503.136 209.339 502.829 209.303 502.525 209.33C500.416 209.33 499.22 211.69 499.22 211.69L495.188 208.993C495.903 207.538 497.017 206.316 498.401 205.47C499.784 204.624 501.379 204.188 503.001 204.214C506.656 204.214 510.622 206.29 510.622 211.029C510.622 215.267 507.267 217.409 504.635 219.089C502.973 220.151 501.599 221.028 501.54 222.134H510.959V226.761H495.584C495.428 225.973 495.344 225.172 495.333 224.368ZM522.401 204.247C516.108 204.247 514.059 209.304 514.059 215.656C514.059 221.982 516.108 227.157 522.401 227.157C528.693 227.157 530.742 222.008 530.742 215.656C530.742 209.304 528.693 204.247 522.401 204.247ZM522.407 209.211C524.542 209.211 525.164 212.06 525.164 215.656C525.164 219.252 524.549 222.2 522.407 222.2C520.266 222.2 519.644 219.252 519.644 215.656C519.644 212.06 520.272 209.211 522.407 209.211Z" fill="url(#paint1_radial_2241_15723)" fill-opacity="0.5"/>
<defs>
<radialGradient id="paint0_radial_2241_15723" cx="0" cy="0" r="1" gradientUnits="userSpaceOnUse" gradientTransform="translate(617.386 192.94) rotate(170.512) scale(625.227 400.87)">
<stop stop-color="#9162F0"/>
<stop offset="1" stop-color="#100047"/>
</radialGradient>
<radialGradient id="paint1_radial_2241_15723" cx="0" cy="0" r="1" gradientUnits="userSpaceOnUse" gradientTransform="translate(-73.2785 -91.3747) rotate(24.4642) scale(705.594 674.205)">
<stop stop-color="#9D24BF"/>
<stop offset="1" stop-color="#270061" stop-opacity="0"/>
</radialGradient>
</defs>
</svg>
